<svg width="1440" height="1024" viewBox="0 0 1440 1024" fill="none" xmlns="http://www.w3.org/2000/svg">
<rect width="1440" height="1024" fill="white"/>
<g filter="url(#filter0_d_60_3)">
<rect x="191" y="23" width="508.822" height="298.565" rx="30" fill="white"/>
</g>
<rect x="226" y="214" width="177" height="70" rx="20" fill="#FFBE3D"/>
<path d="M254.76 258.27C252.68 258.27 250.9 257.83 249.42 256.95C247.94 256.07 246.8 254.82 246 253.2C245.22 251.58 244.83 249.65 244.83 247.41C244.83 245.19 245.22 243.27 246 241.65C246.8 240.03 247.94 238.78 249.42 237.9C250.9 237.02 252.68 236.58 254.76 236.58C256 236.58 257.18 236.76 258.3 237.12C259.42 237.48 260.39 237.99 261.21 238.65C261.55 238.89 261.74 239.17 261.78 239.49C261.84 239.81 261.79 240.1 261.63 240.36C261.47 240.6 261.24 240.76 260.94 240.84C260.66 240.9 260.34 240.8 259.98 240.54C258.56 239.4 256.84 238.83 254.82 238.83C252.44 238.83 250.62 239.58 249.36 241.08C248.1 242.58 247.47 244.69 247.47 247.41C247.47 250.15 248.1 252.27 249.36 253.77C250.62 255.27 252.44 256.02 254.82 256.02C256.84 256.02 258.58 255.44 260.04 254.28C260.4 254.04 260.72 253.95 261 254.01C261.3 254.07 261.52 254.22 261.66 254.46C261.82 254.7 261.88 254.97 261.84 255.27C261.8 255.57 261.63 255.84 261.33 256.08C260.47 256.8 259.48 257.35 258.36 257.73C257.24 258.09 256.04 258.27 254.76 258.27ZM266.666 258.21C265.866 258.21 265.466 257.79 265.466 256.95V237.87C265.466 237.05 265.866 236.64 266.666 236.64C267.486 236.64 267.896 237.05 267.896 237.87V245.82C268.376 244.94 269.046 244.28 269.906 243.84C270.786 243.38 271.766 243.15 272.846 243.15C276.306 243.15 278.036 245.07 278.036 248.91V256.95C278.036 257.79 277.636 258.21 276.836 258.21C276.016 258.21 275.606 257.79 275.606 256.95V249.06C275.606 247.7 275.336 246.71 274.796 246.09C274.276 245.45 273.436 245.13 272.276 245.13C270.936 245.13 269.866 245.55 269.066 246.39C268.286 247.21 267.896 248.31 267.896 249.69V256.95C267.896 257.79 267.486 258.21 266.666 258.21ZM289.086 258.27C286.786 258.27 284.966 257.6 283.626 256.26C282.286 254.9 281.616 253.06 281.616 250.74C281.616 249.24 281.916 247.92 282.516 246.78C283.116 245.62 283.936 244.73 284.976 244.11C286.036 243.47 287.256 243.15 288.636 243.15C290.616 243.15 292.166 243.79 293.286 245.07C294.406 246.33 294.966 248.07 294.966 250.29C294.966 250.91 294.616 251.22 293.916 251.22H283.986C284.066 252.88 284.546 254.15 285.426 255.03C286.306 255.89 287.526 256.32 289.086 256.32C289.746 256.32 290.416 256.24 291.096 256.08C291.776 255.9 292.436 255.59 293.076 255.15C293.536 254.85 293.916 254.79 294.216 254.97C294.536 255.15 294.696 255.43 294.696 255.81C294.716 256.17 294.516 256.49 294.096 256.77C293.436 257.25 292.646 257.62 291.726 257.88C290.826 258.14 289.946 258.27 289.086 258.27ZM288.696 244.95C287.316 244.95 286.226 245.38 285.426 246.24C284.626 247.1 284.156 248.23 284.016 249.63H292.866C292.806 248.15 292.416 247 291.696 246.18C290.996 245.36 289.996 244.95 288.696 244.95ZM304.663 258.27C303.203 258.27 301.943 257.96 300.883 257.34C299.823 256.7 299.003 255.81 298.423 254.67C297.863 253.51 297.583 252.16 297.583 250.62C297.583 248.3 298.213 246.48 299.473 245.16C300.733 243.82 302.463 243.15 304.663 243.15C305.383 243.15 306.133 243.27 306.913 243.51C307.693 243.73 308.403 244.1 309.043 244.62C309.383 244.86 309.523 245.16 309.463 245.52C309.423 245.88 309.253 246.15 308.953 246.33C308.673 246.51 308.343 246.47 307.963 246.21C307.423 245.81 306.883 245.53 306.343 245.37C305.823 245.21 305.313 245.13 304.813 245.13C303.293 245.13 302.123 245.61 301.303 246.57C300.483 247.51 300.073 248.87 300.073 250.65C300.073 252.39 300.483 253.77 301.303 254.79C302.123 255.79 303.293 256.29 304.813 256.29C305.313 256.29 305.823 256.21 306.343 256.05C306.883 255.89 307.423 255.61 307.963 255.21C308.343 254.95 308.673 254.92 308.953 255.12C309.233 255.3 309.383 255.57 309.403 255.93C309.443 256.29 309.303 256.58 308.983 256.8C308.343 257.32 307.643 257.7 306.883 257.94C306.123 258.16 305.383 258.27 304.663 258.27ZM313.57 258.21C312.77 258.21 312.37 257.79 312.37 256.95V237.87C312.37 237.05 312.77 236.64 313.57 236.64C314.39 236.64 314.8 237.05 314.8 237.87V249.9H314.86L321.01 244.02C321.27 243.76 321.51 243.56 321.73 243.42C321.95 243.28 322.24 243.21 322.6 243.21C323.08 243.21 323.39 243.4 323.53 243.78C323.69 244.14 323.59 244.51 323.23 244.89L317.38 250.44L323.8 256.47C324.22 256.87 324.33 257.26 324.13 257.64C323.95 258.02 323.64 258.21 323.2 258.21C322.84 258.21 322.54 258.14 322.3 258C322.08 257.84 321.82 257.61 321.52 257.31L314.86 251.16H314.8V256.95C314.8 257.79 314.39 258.21 313.57 258.21ZM344.314 258.27C342.354 258.27 340.644 257.83 339.184 256.95C337.744 256.05 336.624 254.79 335.824 253.17C335.044 251.55 334.654 249.63 334.654 247.41C334.654 245.19 335.044 243.27 335.824 241.65C336.604 240.03 337.714 238.78 339.154 237.9C340.614 237.02 342.334 236.58 344.314 236.58C346.314 236.58 348.034 237.02 349.474 237.9C350.934 238.78 352.054 240.03 352.834 241.65C353.634 243.25 354.034 245.16 354.034 247.38C354.034 249.6 353.634 251.53 352.834 253.17C352.034 254.79 350.904 256.05 349.444 256.95C348.004 257.83 346.294 258.27 344.314 258.27ZM344.314 256.08C346.574 256.08 348.324 255.32 349.564 253.8C350.804 252.28 351.424 250.15 351.424 247.41C351.424 244.67 350.804 242.55 349.564 241.05C348.324 239.53 346.574 238.77 344.314 238.77C342.094 238.77 340.364 239.53 339.124 241.05C337.884 242.55 337.264 244.67 337.264 247.41C337.264 250.13 337.884 252.26 339.124 253.8C340.364 255.32 342.094 256.08 344.314 256.08ZM363.262 258.27C359.762 258.27 358.012 256.34 358.012 252.48V244.44C358.012 243.62 358.412 243.21 359.212 243.21C360.032 243.21 360.442 243.62 360.442 244.44V252.45C360.442 253.75 360.702 254.71 361.222 255.33C361.762 255.95 362.602 256.26 363.742 256.26C364.982 256.26 365.992 255.85 366.772 255.03C367.552 254.19 367.942 253.08 367.942 251.7V244.44C367.942 243.62 368.352 243.21 369.172 243.21C369.972 243.21 370.372 243.62 370.372 244.44V256.95C370.372 257.79 369.982 258.21 369.202 258.21C368.402 258.21 368.002 257.79 368.002 256.95V255.54C367.542 256.42 366.892 257.1 366.052 257.58C365.232 258.04 364.302 258.27 363.262 258.27ZM380.769 258.27C379.049 258.27 377.759 257.82 376.899 256.92C376.039 256 375.609 254.68 375.609 252.96V245.31H373.599C372.899 245.31 372.549 244.99 372.549 244.35C372.549 243.73 372.899 243.42 373.599 243.42H375.609V239.97C375.609 239.15 376.019 238.74 376.839 238.74C377.639 238.74 378.039 239.15 378.039 239.97V243.42H381.819C382.519 243.42 382.869 243.73 382.869 244.35C382.869 244.99 382.519 245.31 381.819 245.31H378.039V252.72C378.039 253.86 378.279 254.73 378.759 255.33C379.239 255.91 380.019 256.2 381.099 256.2C381.479 256.2 381.799 256.16 382.059 256.08C382.319 256 382.549 255.96 382.749 255.96C382.929 255.94 383.079 256 383.199 256.14C383.319 256.28 383.379 256.52 383.379 256.86C383.379 257.1 383.329 257.32 383.229 257.52C383.149 257.72 382.999 257.86 382.779 257.94C382.539 258.02 382.219 258.09 381.819 258.15C381.439 258.23 381.089 258.27 380.769 258.27Z" fill="black"/>
<path d="M253.18 147.18C250.913 147.18 249.187 146.54 248 145.26C246.813 143.98 246.22 142.213 246.22 139.96C246.22 138.467 246.487 137.18 247.02 136.1C247.553 135.02 248.32 134.187 249.32 133.6C250.32 133.013 251.527 132.72 252.94 132.72C253.78 132.72 254.593 132.84 255.38 133.08C256.167 133.307 256.867 133.673 257.48 134.18C257.667 134.313 257.773 134.48 257.8 134.68C257.827 134.867 257.787 135.047 257.68 135.22C257.587 135.38 257.447 135.487 257.26 135.54C257.087 135.593 256.9 135.553 256.7 135.42C256.153 134.993 255.573 134.687 254.96 134.5C254.347 134.3 253.667 134.2 252.92 134.2C251.32 134.2 250.093 134.707 249.24 135.72C248.387 136.72 247.96 138.133 247.96 139.96C247.96 141.827 248.4 143.253 249.28 144.24C250.16 145.227 251.473 145.72 253.22 145.72C254.353 145.72 255.44 145.527 256.48 145.14V140.96H253.62C253.14 140.96 252.9 140.74 252.9 140.3C252.9 139.873 253.14 139.66 253.62 139.66H257.2C257.667 139.66 257.9 139.893 257.9 140.36V145.58C257.9 145.993 257.753 146.26 257.46 146.38C256.9 146.62 256.227 146.813 255.44 146.96C254.667 147.107 253.913 147.18 253.18 147.18ZM265.412 147.18C263.878 147.18 262.665 146.733 261.772 145.84C260.878 144.933 260.432 143.707 260.432 142.16C260.432 141.16 260.632 140.28 261.032 139.52C261.432 138.747 261.978 138.153 262.672 137.74C263.378 137.313 264.192 137.1 265.112 137.1C266.432 137.1 267.465 137.527 268.212 138.38C268.958 139.22 269.332 140.38 269.332 141.86C269.332 142.273 269.098 142.48 268.632 142.48H262.012C262.065 143.587 262.385 144.433 262.972 145.02C263.558 145.593 264.372 145.88 265.412 145.88C265.852 145.88 266.298 145.827 266.752 145.72C267.205 145.6 267.645 145.393 268.072 145.1C268.378 144.9 268.632 144.86 268.832 144.98C269.045 145.1 269.152 145.287 269.152 145.54C269.165 145.78 269.032 145.993 268.752 146.18C268.312 146.5 267.785 146.747 267.172 146.92C266.572 147.093 265.985 147.18 265.412 147.18ZM265.152 138.3C264.232 138.3 263.505 138.587 262.972 139.16C262.438 139.733 262.125 140.487 262.032 141.42H267.932C267.892 140.433 267.632 139.667 267.152 139.12C266.685 138.573 266.018 138.3 265.152 138.3ZM275.576 147.18C274.43 147.18 273.57 146.88 272.996 146.28C272.423 145.667 272.136 144.787 272.136 143.64V138.54H270.796C270.33 138.54 270.096 138.327 270.096 137.9C270.096 137.487 270.33 137.28 270.796 137.28H272.136V134.98C272.136 134.433 272.41 134.16 272.956 134.16C273.49 134.16 273.756 134.433 273.756 134.98V137.28H276.276C276.743 137.28 276.976 137.487 276.976 137.9C276.976 138.327 276.743 138.54 276.276 138.54H273.756V143.48C273.756 144.24 273.916 144.82 274.236 145.22C274.556 145.607 275.076 145.8 275.796 145.8C276.05 145.8 276.263 145.773 276.436 145.72C276.61 145.667 276.763 145.64 276.896 145.64C277.016 145.627 277.116 145.667 277.196 145.76C277.276 145.853 277.316 146.013 277.316 146.24C277.316 146.4 277.283 146.547 277.216 146.68C277.163 146.813 277.063 146.907 276.916 146.96C276.756 147.013 276.543 147.06 276.276 147.1C276.023 147.153 275.79 147.18 275.576 147.18ZM286.885 147.18C286.218 147.18 285.618 147.053 285.085 146.8C284.565 146.533 284.151 146.173 283.845 145.72C283.538 145.267 283.385 144.76 283.385 144.2C283.385 143.493 283.565 142.933 283.925 142.52C284.298 142.107 284.905 141.813 285.745 141.64C286.598 141.453 287.758 141.36 289.225 141.36H289.865V140.74C289.865 139.913 289.691 139.32 289.345 138.96C289.011 138.587 288.471 138.4 287.725 138.4C287.258 138.4 286.785 138.46 286.305 138.58C285.838 138.7 285.351 138.893 284.845 139.16C284.618 139.28 284.425 139.307 284.265 139.24C284.118 139.16 284.011 139.04 283.945 138.88C283.891 138.707 283.891 138.533 283.945 138.36C284.011 138.173 284.145 138.033 284.345 137.94C284.918 137.647 285.491 137.433 286.065 137.3C286.651 137.167 287.205 137.1 287.725 137.1C288.978 137.1 289.905 137.407 290.505 138.02C291.118 138.633 291.425 139.587 291.425 140.88V146.3C291.425 146.86 291.178 147.14 290.685 147.14C290.165 147.14 289.905 146.86 289.905 146.3V145.32C289.651 145.893 289.258 146.347 288.725 146.68C288.205 147.013 287.591 147.18 286.885 147.18ZM287.145 145.96C287.945 145.96 288.598 145.687 289.105 145.14C289.611 144.58 289.865 143.873 289.865 143.02V142.42H289.245C288.165 142.42 287.311 142.473 286.685 142.58C286.071 142.673 285.638 142.847 285.385 143.1C285.145 143.34 285.025 143.673 285.025 144.1C285.025 144.647 285.211 145.093 285.585 145.44C285.971 145.787 286.491 145.96 287.145 145.96ZM297.39 147.18C296.43 147.18 295.697 146.893 295.19 146.32C294.683 145.733 294.43 144.887 294.43 143.78V133.58C294.43 133.033 294.697 132.76 295.23 132.76C295.777 132.76 296.05 133.033 296.05 133.58V143.66C296.05 145.087 296.617 145.8 297.75 145.8C297.87 145.8 297.977 145.793 298.07 145.78C298.163 145.767 298.257 145.76 298.35 145.76C298.497 145.747 298.597 145.78 298.65 145.86C298.717 145.94 298.75 146.1 298.75 146.34C298.75 146.793 298.523 147.053 298.07 147.12C297.963 147.147 297.85 147.16 297.73 147.16C297.61 147.173 297.497 147.18 297.39 147.18ZM303.308 147.18C302.348 147.18 301.615 146.893 301.108 146.32C300.601 145.733 300.348 144.887 300.348 143.78V133.58C300.348 133.033 300.615 132.76 301.148 132.76C301.695 132.76 301.968 133.033 301.968 133.58V143.66C301.968 145.087 302.535 145.8 303.668 145.8C303.788 145.8 303.895 145.793 303.988 145.78C304.081 145.767 304.175 145.76 304.268 145.76C304.415 145.747 304.515 145.78 304.568 145.86C304.635 145.94 304.668 146.1 304.668 146.34C304.668 146.793 304.441 147.053 303.988 147.12C303.881 147.147 303.768 147.16 303.648 147.16C303.528 147.173 303.415 147.18 303.308 147.18ZM312.222 147.14C311.689 147.14 311.422 146.86 311.422 146.3V133.58C311.422 133.033 311.689 132.76 312.222 132.76C312.769 132.76 313.042 133.033 313.042 133.58V141.6H313.082L317.182 137.68C317.356 137.507 317.516 137.373 317.662 137.28C317.809 137.187 318.002 137.14 318.242 137.14C318.562 137.14 318.769 137.267 318.862 137.52C318.969 137.76 318.902 138.007 318.662 138.26L314.762 141.96L319.042 145.98C319.322 146.247 319.396 146.507 319.262 146.76C319.142 147.013 318.936 147.14 318.642 147.14C318.402 147.14 318.202 147.093 318.042 147C317.896 146.893 317.722 146.74 317.522 146.54L313.082 142.44H313.042V146.3C313.042 146.86 312.769 147.14 312.222 147.14ZM322.222 147.14C321.689 147.14 321.422 146.86 321.422 146.3V137.96C321.422 137.413 321.682 137.14 322.202 137.14C322.736 137.14 323.002 137.413 323.002 137.96V138.94C323.322 138.327 323.776 137.867 324.362 137.56C324.949 137.253 325.609 137.1 326.342 137.1C328.649 137.1 329.802 138.38 329.802 140.94V146.3C329.802 146.86 329.536 147.14 329.002 147.14C328.456 147.14 328.182 146.86 328.182 146.3V141.04C328.182 140.133 328.002 139.473 327.642 139.06C327.296 138.633 326.736 138.42 325.962 138.42C325.069 138.42 324.356 138.7 323.822 139.26C323.302 139.807 323.042 140.54 323.042 141.46V146.3C323.042 146.86 322.769 147.14 322.222 147.14ZM336.83 147.18C335.883 147.18 335.063 146.973 334.37 146.56C333.676 146.147 333.136 145.567 332.75 144.82C332.376 144.06 332.19 143.167 332.19 142.14C332.19 141.113 332.376 140.227 332.75 139.48C333.136 138.72 333.676 138.133 334.37 137.72C335.063 137.307 335.883 137.1 336.83 137.1C337.763 137.1 338.576 137.307 339.27 137.72C339.976 138.133 340.516 138.72 340.89 139.48C341.276 140.227 341.47 141.113 341.47 142.14C341.47 143.167 341.276 144.06 340.89 144.82C340.516 145.567 339.976 146.147 339.27 146.56C338.576 146.973 337.763 147.18 336.83 147.18ZM336.83 145.88C337.736 145.88 338.463 145.56 339.01 144.92C339.556 144.267 339.83 143.34 339.83 142.14C339.83 140.927 339.556 140 339.01 139.36C338.463 138.72 337.736 138.4 336.83 138.4C335.91 138.4 335.176 138.72 334.63 139.36C334.096 140 333.83 140.927 333.83 142.14C333.83 143.34 334.096 144.267 334.63 144.92C335.176 145.56 335.91 145.88 336.83 145.88ZM347.126 147.14C346.633 147.14 346.293 146.887 346.106 146.38L343.126 138.28C342.993 137.933 342.993 137.66 343.126 137.46C343.273 137.247 343.499 137.14 343.806 137.14C344.006 137.14 344.166 137.187 344.286 137.28C344.419 137.373 344.526 137.547 344.606 137.8L347.166 145.1L349.806 137.8C349.966 137.36 350.266 137.14 350.706 137.14C351.133 137.14 351.426 137.36 351.586 137.8L354.186 145.12L356.786 137.76C356.879 137.52 356.986 137.36 357.106 137.28C357.239 137.187 357.406 137.14 357.606 137.14C357.926 137.14 358.133 137.26 358.226 137.5C358.319 137.727 358.306 137.987 358.186 138.28L355.206 146.38C355.006 146.887 354.666 147.14 354.186 147.14C353.693 147.14 353.359 146.887 353.186 146.38L350.666 139.46L348.146 146.38C347.959 146.887 347.619 147.14 347.126 147.14ZM361.383 147.14C360.849 147.14 360.583 146.86 360.583 146.3V137.96C360.583 137.413 360.843 137.14 361.363 137.14C361.896 137.14 362.163 137.413 362.163 137.96V138.94C362.483 138.327 362.936 137.867 363.523 137.56C364.109 137.253 364.769 137.1 365.503 137.1C367.809 137.1 368.963 138.38 368.963 140.94V146.3C368.963 146.86 368.696 147.14 368.163 147.14C367.616 147.14 367.343 146.86 367.343 146.3V141.04C367.343 140.133 367.163 139.473 366.803 139.06C366.456 138.633 365.896 138.42 365.123 138.42C364.229 138.42 363.516 138.7 362.983 139.26C362.463 139.807 362.203 140.54 362.203 141.46V146.3C362.203 146.86 361.929 147.14 361.383 147.14ZM378.126 147.14C377.619 147.14 377.366 146.873 377.366 146.34V133.56C377.366 133.027 377.619 132.76 378.126 132.76C378.339 132.76 378.506 132.807 378.626 132.9C378.759 132.98 378.879 133.12 378.986 133.32L384.166 143.08L389.326 133.32C389.433 133.12 389.546 132.98 389.666 132.9C389.786 132.807 389.959 132.76 390.186 132.76C390.679 132.76 390.926 133.027 390.926 133.56V146.34C390.926 146.873 390.673 147.14 390.166 147.14C389.659 147.14 389.406 146.873 389.406 146.34V135.98L384.886 144.48C384.793 144.653 384.693 144.78 384.586 144.86C384.493 144.927 384.353 144.96 384.166 144.96C383.979 144.96 383.833 144.92 383.726 144.84C383.619 144.76 383.526 144.64 383.446 144.48L378.866 136V146.34C378.866 146.873 378.619 147.14 378.126 147.14ZM395.275 147C394.715 147 394.435 146.713 394.435 146.14V133.66C394.435 133.087 394.709 132.8 395.255 132.8C395.802 132.8 396.075 133.087 396.075 133.66V145.56H402.635C403.142 145.56 403.395 145.8 403.395 146.28C403.395 146.76 403.142 147 402.635 147H395.275ZM413.191 147.18C412.231 147.18 411.498 146.893 410.991 146.32C410.484 145.733 410.231 144.887 410.231 143.78V133.58C410.231 133.033 410.498 132.76 411.031 132.76C411.578 132.76 411.851 133.033 411.851 133.58V143.66C411.851 145.087 412.418 145.8 413.551 145.8C413.671 145.8 413.778 145.793 413.871 145.78C413.964 145.767 414.058 145.76 414.151 145.76C414.298 145.747 414.398 145.78 414.451 145.86C414.518 145.94 414.551 146.1 414.551 146.34C414.551 146.793 414.324 147.053 413.871 147.12C413.764 147.147 413.651 147.16 413.531 147.16C413.411 147.173 413.298 147.18 413.191 147.18ZM416.949 134.94C416.242 134.94 415.889 134.607 415.889 133.94C415.889 133.287 416.242 132.96 416.949 132.96C417.656 132.96 418.009 133.287 418.009 133.94C418.009 134.607 417.656 134.94 416.949 134.94ZM416.949 147.1C416.416 147.1 416.149 146.807 416.149 146.22V138.04C416.149 137.467 416.416 137.18 416.949 137.18C417.496 137.18 417.769 137.467 417.769 138.04V146.22C417.769 146.807 417.496 147.1 416.949 147.1ZM425.717 147.18C424.957 147.18 424.284 147.013 423.697 146.68C423.111 146.333 422.677 145.86 422.397 145.26V146.3C422.397 146.86 422.131 147.14 421.597 147.14C421.064 147.14 420.797 146.86 420.797 146.3V133.58C420.797 133.033 421.064 132.76 421.597 132.76C422.144 132.76 422.417 133.033 422.417 133.58V138.96C422.697 138.387 423.131 137.933 423.717 137.6C424.304 137.267 424.971 137.1 425.717 137.1C426.584 137.1 427.337 137.307 427.977 137.72C428.631 138.12 429.131 138.7 429.477 139.46C429.837 140.207 430.017 141.1 430.017 142.14C430.017 143.167 429.837 144.06 429.477 144.82C429.131 145.567 428.631 146.147 427.977 146.56C427.337 146.973 426.584 147.18 425.717 147.18ZM425.377 145.88C426.284 145.88 427.011 145.56 427.557 144.92C428.104 144.267 428.377 143.34 428.377 142.14C428.377 140.927 428.104 140 427.557 139.36C427.011 138.72 426.284 138.4 425.377 138.4C424.471 138.4 423.744 138.72 423.197 139.36C422.651 140 422.377 140.927 422.377 142.14C422.377 143.34 422.651 144.267 423.197 144.92C423.744 145.56 424.471 145.88 425.377 145.88ZM433.278 147.14C432.731 147.14 432.458 146.86 432.458 146.3V137.96C432.458 137.413 432.718 137.14 433.238 137.14C433.771 137.14 434.038 137.413 434.038 137.96V139.02C434.304 138.407 434.718 137.94 435.278 137.62C435.838 137.287 436.504 137.107 437.278 137.08C437.704 137.04 437.931 137.253 437.958 137.72C437.998 138.187 437.758 138.447 437.238 138.5L436.918 138.54C435.998 138.62 435.298 138.913 434.818 139.42C434.338 139.913 434.098 140.593 434.098 141.46V146.3C434.098 146.86 433.824 147.14 433.278 147.14ZM442.588 147.18C441.921 147.18 441.321 147.053 440.788 146.8C440.268 146.533 439.854 146.173 439.548 145.72C439.241 145.267 439.088 144.76 439.088 144.2C439.088 143.493 439.268 142.933 439.628 142.52C440.001 142.107 440.608 141.813 441.448 141.64C442.301 141.453 443.461 141.36 444.928 141.36H445.568V140.74C445.568 139.913 445.394 139.32 445.048 138.96C444.714 138.587 444.174 138.4 443.428 138.4C442.961 138.4 442.488 138.46 442.008 138.58C441.541 138.7 441.054 138.893 440.548 139.16C440.321 139.28 440.128 139.307 439.968 139.24C439.821 139.16 439.714 139.04 439.648 138.88C439.594 138.707 439.594 138.533 439.648 138.36C439.714 138.173 439.848 138.033 440.048 137.94C440.621 137.647 441.194 137.433 441.768 137.3C442.354 137.167 442.908 137.1 443.428 137.1C444.681 137.1 445.608 137.407 446.208 138.02C446.821 138.633 447.128 139.587 447.128 140.88V146.3C447.128 146.86 446.881 147.14 446.388 147.14C445.868 147.14 445.608 146.86 445.608 146.3V145.32C445.354 145.893 444.961 146.347 444.428 146.68C443.908 147.013 443.294 147.18 442.588 147.18ZM442.848 145.96C443.648 145.96 444.301 145.687 444.808 145.14C445.314 144.58 445.568 143.873 445.568 143.02V142.42H444.948C443.868 142.42 443.014 142.473 442.388 142.58C441.774 142.673 441.341 142.847 441.088 143.1C440.848 143.34 440.728 143.673 440.728 144.1C440.728 144.647 440.914 145.093 441.288 145.44C441.674 145.787 442.194 145.96 442.848 145.96ZM450.953 147.14C450.407 147.14 450.133 146.86 450.133 146.3V137.96C450.133 137.413 450.393 137.14 450.913 137.14C451.447 137.14 451.713 137.413 451.713 137.96V139.02C451.98 138.407 452.393 137.94 452.953 137.62C453.513 137.287 454.18 137.107 454.953 137.08C455.38 137.04 455.607 137.253 455.633 137.72C455.673 138.187 455.433 138.447 454.913 138.5L454.593 138.54C453.673 138.62 452.973 138.913 452.493 139.42C452.013 139.913 451.773 140.593 451.773 141.46V146.3C451.773 146.86 451.5 147.14 450.953 147.14ZM458.101 134.94C457.395 134.94 457.041 134.607 457.041 133.94C457.041 133.287 457.395 132.96 458.101 132.96C458.808 132.96 459.161 133.287 459.161 133.94C459.161 134.607 458.808 134.94 458.101 134.94ZM458.101 147.1C457.568 147.1 457.301 146.807 457.301 146.22V138.04C457.301 137.467 457.568 137.18 458.101 137.18C458.648 137.18 458.921 137.467 458.921 138.04V146.22C458.921 146.807 458.648 147.1 458.101 147.1ZM466.33 147.18C464.796 147.18 463.583 146.733 462.69 145.84C461.796 144.933 461.35 143.707 461.35 142.16C461.35 141.16 461.55 140.28 461.95 139.52C462.35 138.747 462.896 138.153 463.59 137.74C464.296 137.313 465.11 137.1 466.03 137.1C467.35 137.1 468.383 137.527 469.13 138.38C469.876 139.22 470.25 140.38 470.25 141.86C470.25 142.273 470.016 142.48 469.55 142.48H462.93C462.983 143.587 463.303 144.433 463.89 145.02C464.476 145.593 465.29 145.88 466.33 145.88C466.77 145.88 467.216 145.827 467.67 145.72C468.123 145.6 468.563 145.393 468.99 145.1C469.296 144.9 469.55 144.86 469.75 144.98C469.963 145.1 470.07 145.287 470.07 145.54C470.083 145.78 469.95 145.993 469.67 146.18C469.23 146.5 468.703 146.747 468.09 146.92C467.49 147.093 466.903 147.18 466.33 147.18ZM466.07 138.3C465.15 138.3 464.423 138.587 463.89 139.16C463.356 139.733 463.043 140.487 462.95 141.42H468.85C468.81 140.433 468.55 139.667 468.07 139.12C467.603 138.573 466.936 138.3 466.07 138.3ZM475.874 147.18C475.274 147.18 474.668 147.107 474.054 146.96C473.454 146.8 472.894 146.547 472.374 146.2C472.134 146.053 472.014 145.867 472.014 145.64C472.028 145.4 472.121 145.213 472.294 145.08C472.468 144.947 472.688 144.947 472.954 145.08C473.474 145.4 473.974 145.627 474.454 145.76C474.948 145.88 475.434 145.94 475.914 145.94C476.674 145.94 477.248 145.8 477.634 145.52C478.021 145.24 478.214 144.86 478.214 144.38C478.214 144.007 478.088 143.713 477.834 143.5C477.581 143.273 477.181 143.1 476.634 142.98L474.814 142.58C473.161 142.22 472.334 141.367 472.334 140.02C472.334 139.14 472.681 138.433 473.374 137.9C474.081 137.367 475.001 137.1 476.134 137.1C476.708 137.1 477.261 137.18 477.794 137.34C478.328 137.487 478.808 137.727 479.234 138.06C479.461 138.22 479.561 138.413 479.534 138.64C479.508 138.867 479.401 139.047 479.214 139.18C479.041 139.3 478.828 139.28 478.574 139.12C478.174 138.853 477.768 138.66 477.354 138.54C476.941 138.407 476.534 138.34 476.134 138.34C475.388 138.34 474.821 138.487 474.434 138.78C474.048 139.073 473.854 139.46 473.854 139.94C473.854 140.687 474.348 141.167 475.334 141.38L477.154 141.76C478.008 141.947 478.654 142.247 479.094 142.66C479.534 143.06 479.754 143.607 479.754 144.3C479.754 145.193 479.401 145.9 478.694 146.42C477.988 146.927 477.048 147.18 475.874 147.18ZM488.699 147.14C488.166 147.14 487.899 146.86 487.899 146.3V138.54H486.619C486.153 138.54 485.919 138.327 485.919 137.9C485.919 137.487 486.153 137.28 486.619 137.28H487.899V136.94C487.899 134.447 489.119 133.093 491.559 132.88L492.139 132.82C492.379 132.807 492.553 132.86 492.659 132.98C492.766 133.1 492.819 133.247 492.819 133.42C492.833 133.58 492.793 133.727 492.699 133.86C492.606 133.993 492.473 134.067 492.299 134.08L491.839 134.12C491.026 134.187 490.433 134.433 490.059 134.86C489.699 135.287 489.519 135.913 489.519 136.74V137.28H491.679C492.146 137.28 492.379 137.487 492.379 137.9C492.379 138.327 492.146 138.54 491.679 138.54H489.519V146.3C489.519 146.86 489.246 147.14 488.699 147.14ZM497.806 147.18C496.859 147.18 496.039 146.973 495.346 146.56C494.653 146.147 494.113 145.567 493.726 144.82C493.353 144.06 493.166 143.167 493.166 142.14C493.166 141.113 493.353 140.227 493.726 139.48C494.113 138.72 494.653 138.133 495.346 137.72C496.039 137.307 496.859 137.1 497.806 137.1C498.739 137.1 499.553 137.307 500.246 137.72C500.953 138.133 501.493 138.72 501.866 139.48C502.253 140.227 502.446 141.113 502.446 142.14C502.446 143.167 502.253 144.06 501.866 144.82C501.493 145.567 500.953 146.147 500.246 146.56C499.553 146.973 498.739 147.18 497.806 147.18ZM497.806 145.88C498.713 145.88 499.439 145.56 499.986 144.92C500.533 144.267 500.806 143.34 500.806 142.14C500.806 140.927 500.533 140 499.986 139.36C499.439 138.72 498.713 138.4 497.806 138.4C496.886 138.4 496.153 138.72 495.606 139.36C495.073 140 494.806 140.927 494.806 142.14C494.806 143.34 495.073 144.267 495.606 144.92C496.153 145.56 496.886 145.88 497.806 145.88ZM505.699 147.14C505.153 147.14 504.879 146.86 504.879 146.3V137.96C504.879 137.413 505.139 137.14 505.659 137.14C506.193 137.14 506.459 137.413 506.459 137.96V139.02C506.726 138.407 507.139 137.94 507.699 137.62C508.259 137.287 508.926 137.107 509.699 137.08C510.126 137.04 510.353 137.253 510.379 137.72C510.419 138.187 510.179 138.447 509.659 138.5L509.339 138.54C508.419 138.62 507.719 138.913 507.239 139.42C506.759 139.913 506.519 140.593 506.519 141.46V146.3C506.519 146.86 506.246 147.14 505.699 147.14ZM518.004 150.74C517.47 150.74 517.204 150.467 517.204 149.92V137.96C517.204 137.413 517.464 137.14 517.984 137.14C518.53 137.14 518.804 137.413 518.804 137.96V139C519.084 138.413 519.517 137.953 520.104 137.62C520.69 137.273 521.364 137.1 522.124 137.1C522.99 137.1 523.744 137.307 524.384 137.72C525.037 138.12 525.537 138.7 525.884 139.46C526.244 140.207 526.424 141.1 526.424 142.14C526.424 143.167 526.244 144.06 525.884 144.82C525.537 145.567 525.037 146.147 524.384 146.56C523.744 146.973 522.99 147.18 522.124 147.18C521.377 147.18 520.71 147.013 520.124 146.68C519.537 146.347 519.104 145.887 518.824 145.3V149.92C518.824 150.467 518.55 150.74 518.004 150.74ZM521.784 145.88C522.69 145.88 523.417 145.56 523.964 144.92C524.51 144.267 524.784 143.34 524.784 142.14C524.784 140.927 524.51 140 523.964 139.36C523.417 138.72 522.69 138.4 521.784 138.4C520.877 138.4 520.15 138.72 519.604 139.36C519.057 140 518.784 140.927 518.784 142.14C518.784 143.34 519.057 144.267 519.604 144.92C520.15 145.56 520.877 145.88 521.784 145.88ZM529.684 147.14C529.137 147.14 528.864 146.86 528.864 146.3V137.96C528.864 137.413 529.124 137.14 529.644 137.14C530.177 137.14 530.444 137.413 530.444 137.96V139.02C530.71 138.407 531.124 137.94 531.684 137.62C532.244 137.287 532.91 137.107 533.684 137.08C534.11 137.04 534.337 137.253 534.364 137.72C534.404 138.187 534.164 138.447 533.644 138.5L533.324 138.54C532.404 138.62 531.704 138.913 531.224 139.42C530.744 139.913 530.504 140.593 530.504 141.46V146.3C530.504 146.86 530.23 147.14 529.684 147.14ZM539.955 147.18C539.008 147.18 538.188 146.973 537.495 146.56C536.801 146.147 536.261 145.567 535.875 144.82C535.501 144.06 535.315 143.167 535.315 142.14C535.315 141.113 535.501 140.227 535.875 139.48C536.261 138.72 536.801 138.133 537.495 137.72C538.188 137.307 539.008 137.1 539.955 137.1C540.888 137.1 541.701 137.307 542.395 137.72C543.101 138.133 543.641 138.72 544.015 139.48C544.401 140.227 544.595 141.113 544.595 142.14C544.595 143.167 544.401 144.06 544.015 144.82C543.641 145.567 543.101 146.147 542.395 146.56C541.701 146.973 540.888 147.18 539.955 147.18ZM539.955 145.88C540.861 145.88 541.588 145.56 542.135 144.92C542.681 144.267 542.955 143.34 542.955 142.14C542.955 140.927 542.681 140 542.135 139.36C541.588 138.72 540.861 138.4 539.955 138.4C539.035 138.4 538.301 138.72 537.755 139.36C537.221 140 536.955 140.927 536.955 142.14C536.955 143.34 537.221 144.267 537.755 144.92C538.301 145.56 539.035 145.88 539.955 145.88ZM547.888 134.94C547.181 134.94 546.828 134.607 546.828 133.94C546.828 133.287 547.181 132.96 547.888 132.96C548.608 132.96 548.968 133.287 548.968 133.94C548.968 134.607 548.608 134.94 547.888 134.94ZM545.168 150.82C544.834 150.833 544.608 150.74 544.488 150.54C544.354 150.34 544.328 150.127 544.408 149.9C544.488 149.687 544.661 149.573 544.928 149.56C545.661 149.52 546.201 149.32 546.548 148.96C546.908 148.613 547.088 148.06 547.088 147.3V137.96C547.088 137.413 547.361 137.14 547.908 137.14C548.441 137.14 548.708 137.413 548.708 137.96V147.18C548.708 148.407 548.401 149.307 547.788 149.88C547.188 150.453 546.314 150.767 545.168 150.82ZM556.134 147.18C554.601 147.18 553.388 146.733 552.494 145.84C551.601 144.933 551.154 143.707 551.154 142.16C551.154 141.16 551.354 140.28 551.754 139.52C552.154 138.747 552.701 138.153 553.394 137.74C554.101 137.313 554.914 137.1 555.834 137.1C557.154 137.1 558.188 137.527 558.934 138.38C559.681 139.22 560.054 140.38 560.054 141.86C560.054 142.273 559.821 142.48 559.354 142.48H552.734C552.788 143.587 553.108 144.433 553.694 145.02C554.281 145.593 555.094 145.88 556.134 145.88C556.574 145.88 557.021 145.827 557.474 145.72C557.928 145.6 558.368 145.393 558.794 145.1C559.101 144.9 559.354 144.86 559.554 144.98C559.768 145.1 559.874 145.287 559.874 145.54C559.888 145.78 559.754 145.993 559.474 146.18C559.034 146.5 558.508 146.747 557.894 146.92C557.294 147.093 556.708 147.18 556.134 147.18ZM555.874 138.3C554.954 138.3 554.228 138.587 553.694 139.16C553.161 139.733 552.848 140.487 552.754 141.42H558.654C558.614 140.433 558.354 139.667 557.874 139.12C557.408 138.573 556.741 138.3 555.874 138.3ZM566.519 147.18C565.546 147.18 564.706 146.973 563.999 146.56C563.292 146.133 562.746 145.54 562.359 144.78C561.986 144.007 561.799 143.107 561.799 142.08C561.799 140.533 562.219 139.32 563.059 138.44C563.899 137.547 565.052 137.1 566.519 137.1C566.999 137.1 567.499 137.18 568.019 137.34C568.539 137.487 569.012 137.733 569.439 138.08C569.666 138.24 569.759 138.44 569.719 138.68C569.692 138.92 569.579 139.1 569.379 139.22C569.192 139.34 568.972 139.313 568.719 139.14C568.359 138.873 567.999 138.687 567.639 138.58C567.292 138.473 566.952 138.42 566.619 138.42C565.606 138.42 564.826 138.74 564.279 139.38C563.732 140.007 563.459 140.913 563.459 142.1C563.459 143.26 563.732 144.18 564.279 144.86C564.826 145.527 565.606 145.86 566.619 145.86C566.952 145.86 567.292 145.807 567.639 145.7C567.999 145.593 568.359 145.407 568.719 145.14C568.972 144.967 569.192 144.947 569.379 145.08C569.566 145.2 569.666 145.38 569.679 145.62C569.706 145.86 569.612 146.053 569.399 146.2C568.972 146.547 568.506 146.8 567.999 146.96C567.492 147.107 566.999 147.18 566.519 147.18ZM575.557 147.18C574.41 147.18 573.55 146.88 572.977 146.28C572.403 145.667 572.117 144.787 572.117 143.64V138.54H570.777C570.31 138.54 570.077 138.327 570.077 137.9C570.077 137.487 570.31 137.28 570.777 137.28H572.117V134.98C572.117 134.433 572.39 134.16 572.937 134.16C573.47 134.16 573.737 134.433 573.737 134.98V137.28H576.257C576.723 137.28 576.957 137.487 576.957 137.9C576.957 138.327 576.723 138.54 576.257 138.54H573.737V143.48C573.737 144.24 573.897 144.82 574.217 145.22C574.537 145.607 575.057 145.8 575.777 145.8C576.03 145.8 576.243 145.773 576.417 145.72C576.59 145.667 576.743 145.64 576.877 145.64C576.997 145.627 577.097 145.667 577.177 145.76C577.257 145.853 577.297 146.013 577.297 146.24C577.297 146.4 577.263 146.547 577.197 146.68C577.143 146.813 577.043 146.907 576.897 146.96C576.737 147.013 576.523 147.06 576.257 147.1C576.003 147.153 575.77 147.18 575.557 147.18ZM581.929 147.18C581.329 147.18 580.722 147.107 580.109 146.96C579.509 146.8 578.949 146.547 578.429 146.2C578.189 146.053 578.069 145.867 578.069 145.64C578.082 145.4 578.176 145.213 578.349 145.08C578.522 144.947 578.742 144.947 579.009 145.08C579.529 145.4 580.029 145.627 580.509 145.76C581.002 145.88 581.489 145.94 581.969 145.94C582.729 145.94 583.302 145.8 583.689 145.52C584.076 145.24 584.269 144.86 584.269 144.38C584.269 144.007 584.142 143.713 583.889 143.5C583.636 143.273 583.236 143.1 582.689 142.98L580.869 142.58C579.216 142.22 578.389 141.367 578.389 140.02C578.389 139.14 578.736 138.433 579.429 137.9C580.136 137.367 581.056 137.1 582.189 137.1C582.762 137.1 583.316 137.18 583.849 137.34C584.382 137.487 584.862 137.727 585.289 138.06C585.516 138.22 585.616 138.413 585.589 138.64C585.562 138.867 585.456 139.047 585.269 139.18C585.096 139.3 584.882 139.28 584.629 139.12C584.229 138.853 583.822 138.66 583.409 138.54C582.996 138.407 582.589 138.34 582.189 138.34C581.442 138.34 580.876 138.487 580.489 138.78C580.102 139.073 579.909 139.46 579.909 139.94C579.909 140.687 580.402 141.167 581.389 141.38L583.209 141.76C584.062 141.947 584.709 142.247 585.149 142.66C585.589 143.06 585.809 143.607 585.809 144.3C585.809 145.193 585.456 145.9 584.749 146.42C584.042 146.927 583.102 147.18 581.929 147.18ZM594.234 134.94C593.527 134.94 593.174 134.607 593.174 133.94C593.174 133.287 593.527 132.96 594.234 132.96C594.941 132.96 595.294 133.287 595.294 133.94C595.294 134.607 594.941 134.94 594.234 134.94ZM594.234 147.1C593.701 147.1 593.434 146.807 593.434 146.22V138.04C593.434 137.467 593.701 137.18 594.234 137.18C594.781 137.18 595.054 137.467 595.054 138.04V146.22C595.054 146.807 594.781 147.1 594.234 147.1ZM598.883 147.14C598.349 147.14 598.083 146.86 598.083 146.3V137.96C598.083 137.413 598.343 137.14 598.863 137.14C599.396 137.14 599.663 137.413 599.663 137.96V138.94C599.983 138.327 600.436 137.867 601.023 137.56C601.609 137.253 602.269 137.1 603.003 137.1C605.309 137.1 606.463 138.38 606.463 140.94V146.3C606.463 146.86 606.196 147.14 605.663 147.14C605.116 147.14 604.843 146.86 604.843 146.3V141.04C604.843 140.133 604.663 139.473 604.303 139.06C603.956 138.633 603.396 138.42 602.623 138.42C601.729 138.42 601.016 138.7 600.483 139.26C599.963 139.807 599.703 140.54 599.703 141.46V146.3C599.703 146.86 599.429 147.14 598.883 147.14ZM618.646 147.18C617.699 147.18 616.879 146.973 616.186 146.56C615.493 146.147 614.953 145.567 614.566 144.82C614.193 144.06 614.006 143.167 614.006 142.14C614.006 141.113 614.193 140.227 614.566 139.48C614.953 138.72 615.493 138.133 616.186 137.72C616.879 137.307 617.699 137.1 618.646 137.1C619.579 137.1 620.393 137.307 621.086 137.72C621.793 138.133 622.333 138.72 622.706 139.48C623.093 140.227 623.286 141.113 623.286 142.14C623.286 143.167 623.093 144.06 622.706 144.82C622.333 145.567 621.793 146.147 621.086 146.56C620.393 146.973 619.579 147.18 618.646 147.18ZM618.646 145.88C619.553 145.88 620.279 145.56 620.826 144.92C621.373 144.267 621.646 143.34 621.646 142.14C621.646 140.927 621.373 140 620.826 139.36C620.279 138.72 619.553 138.4 618.646 138.4C617.726 138.4 616.993 138.72 616.446 139.36C615.913 140 615.646 140.927 615.646 142.14C615.646 143.34 615.913 144.267 616.446 144.92C616.993 145.56 617.726 145.88 618.646 145.88ZM626.519 147.14C625.986 147.14 625.719 146.86 625.719 146.3V137.96C625.719 137.413 625.979 137.14 626.499 137.14C627.033 137.14 627.299 137.413 627.299 137.96V138.94C627.619 138.327 628.073 137.867 628.659 137.56C629.246 137.253 629.906 137.1 630.639 137.1C632.946 137.1 634.099 138.38 634.099 140.94V146.3C634.099 146.86 633.833 147.14 633.299 147.14C632.753 147.14 632.479 146.86 632.479 146.3V141.04C632.479 140.133 632.299 139.473 631.939 139.06C631.593 138.633 631.033 138.42 630.259 138.42C629.366 138.42 628.653 138.7 628.119 139.26C627.599 139.807 627.339 140.54 627.339 141.46V146.3C627.339 146.86 627.066 147.14 626.519 147.14ZM641.466 147.18C639.933 147.18 638.72 146.733 637.826 145.84C636.933 144.933 636.486 143.707 636.486 142.16C636.486 141.16 636.686 140.28 637.086 139.52C637.486 138.747 638.033 138.153 638.726 137.74C639.433 137.313 640.246 137.1 641.166 137.1C642.486 137.1 643.52 137.527 644.266 138.38C645.013 139.22 645.386 140.38 645.386 141.86C645.386 142.273 645.153 142.48 644.686 142.48H638.066C638.12 143.587 638.44 144.433 639.026 145.02C639.613 145.593 640.426 145.88 641.466 145.88C641.906 145.88 642.353 145.827 642.806 145.72C643.26 145.6 643.7 145.393 644.126 145.1C644.433 144.9 644.686 144.86 644.886 144.98C645.1 145.1 645.206 145.287 645.206 145.54C645.22 145.78 645.086 145.993 644.806 146.18C644.366 146.5 643.84 146.747 643.226 146.92C642.626 147.093 642.04 147.18 641.466 147.18ZM641.206 138.3C640.286 138.3 639.56 138.587 639.026 139.16C638.493 139.733 638.18 140.487 638.086 141.42H643.986C643.946 140.433 643.686 139.667 643.206 139.12C642.74 138.573 642.073 138.3 641.206 138.3ZM247.32 177.74C246.787 177.74 246.52 177.467 246.52 176.92V164.96C246.52 164.413 246.78 164.14 247.3 164.14C247.847 164.14 248.12 164.413 248.12 164.96V166C248.4 165.413 248.833 164.953 249.42 164.62C250.007 164.273 250.68 164.1 251.44 164.1C252.307 164.1 253.06 164.307 253.7 164.72C254.353 165.12 254.853 165.7 255.2 166.46C255.56 167.207 255.74 168.1 255.74 169.14C255.74 170.167 255.56 171.06 255.2 171.82C254.853 172.567 254.353 173.147 253.7 173.56C253.06 173.973 252.307 174.18 251.44 174.18C250.693 174.18 250.027 174.013 249.44 173.68C248.853 173.347 248.42 172.887 248.14 172.3V176.92C248.14 177.467 247.867 177.74 247.32 177.74ZM251.1 172.88C252.007 172.88 252.733 172.56 253.28 171.92C253.827 171.267 254.1 170.34 254.1 169.14C254.1 167.927 253.827 167 253.28 166.36C252.733 165.72 252.007 165.4 251.1 165.4C250.193 165.4 249.467 165.72 248.92 166.36C248.373 167 248.1 167.927 248.1 169.14C248.1 170.34 248.373 171.267 248.92 171.92C249.467 172.56 250.193 172.88 251.1 172.88ZM261.14 174.18C260.18 174.18 259.447 173.893 258.94 173.32C258.433 172.733 258.18 171.887 258.18 170.78V160.58C258.18 160.033 258.447 159.76 258.98 159.76C259.527 159.76 259.8 160.033 259.8 160.58V170.66C259.8 172.087 260.367 172.8 261.5 172.8C261.62 172.8 261.727 172.793 261.82 172.78C261.913 172.767 262.007 172.76 262.1 172.76C262.247 172.747 262.347 172.78 262.4 172.86C262.467 172.94 262.5 173.1 262.5 173.34C262.5 173.793 262.273 174.053 261.82 174.12C261.713 174.147 261.6 174.16 261.48 174.16C261.36 174.173 261.247 174.18 261.14 174.18ZM267.158 174.18C266.491 174.18 265.891 174.053 265.358 173.8C264.838 173.533 264.425 173.173 264.118 172.72C263.811 172.267 263.658 171.76 263.658 171.2C263.658 170.493 263.838 169.933 264.198 169.52C264.571 169.107 265.178 168.813 266.018 168.64C266.871 168.453 268.031 168.36 269.498 168.36H270.138V167.74C270.138 166.913 269.965 166.32 269.618 165.96C269.285 165.587 268.745 165.4 267.998 165.4C267.531 165.4 267.058 165.46 266.578 165.58C266.111 165.7 265.625 165.893 265.118 166.16C264.891 166.28 264.698 166.307 264.538 166.24C264.391 166.16 264.285 166.04 264.218 165.88C264.165 165.707 264.165 165.533 264.218 165.36C264.285 165.173 264.418 165.033 264.618 164.94C265.191 164.647 265.765 164.433 266.338 164.3C266.925 164.167 267.478 164.1 267.998 164.1C269.251 164.1 270.178 164.407 270.778 165.02C271.391 165.633 271.698 166.587 271.698 167.88V173.3C271.698 173.86 271.451 174.14 270.958 174.14C270.438 174.14 270.178 173.86 270.178 173.3V172.32C269.925 172.893 269.531 173.347 268.998 173.68C268.478 174.013 267.865 174.18 267.158 174.18ZM267.418 172.96C268.218 172.96 268.871 172.687 269.378 172.14C269.885 171.58 270.138 170.873 270.138 170.02V169.42H269.518C268.438 169.42 267.585 169.473 266.958 169.58C266.345 169.673 265.911 169.847 265.658 170.1C265.418 170.34 265.298 170.673 265.298 171.1C265.298 171.647 265.485 172.093 265.858 172.44C266.245 172.787 266.765 172.96 267.418 172.96ZM278.824 174.18C277.85 174.18 277.01 173.973 276.304 173.56C275.597 173.133 275.05 172.54 274.664 171.78C274.29 171.007 274.104 170.107 274.104 169.08C274.104 167.533 274.524 166.32 275.364 165.44C276.204 164.547 277.357 164.1 278.824 164.1C279.304 164.1 279.804 164.18 280.324 164.34C280.844 164.487 281.317 164.733 281.744 165.08C281.97 165.24 282.064 165.44 282.024 165.68C281.997 165.92 281.884 166.1 281.684 166.22C281.497 166.34 281.277 166.313 281.024 166.14C280.664 165.873 280.304 165.687 279.944 165.58C279.597 165.473 279.257 165.42 278.924 165.42C277.91 165.42 277.13 165.74 276.584 166.38C276.037 167.007 275.764 167.913 275.764 169.1C275.764 170.26 276.037 171.18 276.584 171.86C277.13 172.527 277.91 172.86 278.924 172.86C279.257 172.86 279.597 172.807 279.944 172.7C280.304 172.593 280.664 172.407 281.024 172.14C281.277 171.967 281.497 171.947 281.684 172.08C281.87 172.2 281.97 172.38 281.984 172.62C282.01 172.86 281.917 173.053 281.704 173.2C281.277 173.547 280.81 173.8 280.304 173.96C279.797 174.107 279.304 174.18 278.824 174.18ZM288.146 174.18C286.613 174.18 285.399 173.733 284.506 172.84C283.613 171.933 283.166 170.707 283.166 169.16C283.166 168.16 283.366 167.28 283.766 166.52C284.166 165.747 284.713 165.153 285.406 164.74C286.113 164.313 286.926 164.1 287.846 164.1C289.166 164.1 290.199 164.527 290.946 165.38C291.693 166.22 292.066 167.38 292.066 168.86C292.066 169.273 291.833 169.48 291.366 169.48H284.746C284.799 170.587 285.119 171.433 285.706 172.02C286.293 172.593 287.106 172.88 288.146 172.88C288.586 172.88 289.033 172.827 289.486 172.72C289.939 172.6 290.379 172.393 290.806 172.1C291.113 171.9 291.366 171.86 291.566 171.98C291.779 172.1 291.886 172.287 291.886 172.54C291.899 172.78 291.766 172.993 291.486 173.18C291.046 173.5 290.519 173.747 289.906 173.92C289.306 174.093 288.719 174.18 288.146 174.18ZM287.886 165.3C286.966 165.3 286.239 165.587 285.706 166.16C285.173 166.733 284.859 167.487 284.766 168.42H290.666C290.626 167.433 290.366 166.667 289.886 166.12C289.419 165.573 288.753 165.3 287.886 165.3Z" fill="#2D3748"/>
<path d="M250.08 102.28C249.067 102.28 248.56 101.747 248.56 100.68V75.12C248.56 74.0533 249.067 73.52 250.08 73.52C250.507 73.52 250.84 73.6133 251.08 73.8C251.347 73.96 251.587 74.24 251.8 74.64L262.16 94.16L272.48 74.64C272.693 74.24 272.92 73.96 273.16 73.8C273.4 73.6133 273.747 73.52 274.2 73.52C275.187 73.52 275.68 74.0533 275.68 75.12V100.68C275.68 101.747 275.173 102.28 274.16 102.28C273.147 102.28 272.64 101.747 272.64 100.68V79.96L263.6 96.96C263.413 97.3067 263.213 97.56 263 97.72C262.813 97.8533 262.533 97.92 262.16 97.92C261.787 97.92 261.493 97.84 261.28 97.68C261.067 97.52 260.88 97.28 260.72 96.96L251.56 80V100.68C251.56 101.747 251.067 102.28 250.08 102.28ZM284.379 102C283.259 102 282.699 101.427 282.699 100.28V75.32C282.699 74.1733 283.245 73.6 284.339 73.6C285.432 73.6 285.979 74.1733 285.979 75.32V99.12H299.099C300.112 99.12 300.619 99.6 300.619 100.56C300.619 101.52 300.112 102 299.099 102H284.379Z" fill="#171347"/>
<path d="M1440 1024H0V804.83L1440 499V1024Z" fill="#171347"/>
<line x1="69" y1="905.5" x2="1364" y2="905.5" stroke="#50B5FF"/>
<defs>
<filter id="filter0_d_60_3" x="183" y="15" width="528.822" height="318.565" filterUnits="userSpaceOnUse" color-interpolation-filters="sRGB">
<feFlood flood-opacity="0" result="BackgroundImageFix"/>
<feColorMatrix in="SourceAlpha" type="matrix" values="0 0 0 0 0 0 0 0 0 0 0 0 0 0 0 0 0 0 127 0" result="hardAlpha"/>
<feOffset dx="2" dy="2"/>
<feGaussianBlur stdDeviation="5"/>
<feComposite in2="hardAlpha" operator="out"/>
<feColorMatrix type="matrix" values="0 0 0 0 0 0 0 0 0 0 0 0 0 0 0 0 0 0 0.25 0"/>
<feBlend mode="normal" in2="BackgroundImageFix" result="effect1_dropShadow_60_3"/>
<feBlend mode="normal" in="SourceGraphic" in2="effect1_dropShadow_60_3" result="shape"/>
</filter>
</defs>
</svg>
