<svg xmlns="http://www.w3.org/2000/svg" viewBox="0 0 665.06 393.54"><defs><style>.cls-1{fill:#ebebeb;}.cls-2{fill:#263238;}.cls-12,.cls-3{fill:#fff;}.cls-4{fill:#47a856;}.cls-5{fill:#c82329;}.cls-6{fill:#33a457;}.cls-7{fill:#a6a6a6;}.cls-8{fill:#3a54a1;}.cls-9{fill:#dbdbdb;}.cls-10{fill:#7a3e93;}.cls-11{fill:#ffc727;}.cls-12{stroke:#f7f7f7;stroke-miterlimit:10;stroke-width:0.6px;}.cls-13{fill:#d3766a;}.cls-14{fill:#f9bdb6;}.cls-15{fill:#ff99ba;}.cls-16{fill:#272525;}.cls-17{fill:#455a64;}.cls-18{fill:#37474f;}.cls-19{fill:#b4252b;}.cls-20{fill:#00df0c;}.cls-21{fill:#774442;}</style></defs><g id="Background_Complete" data-name="Background Complete"><path class="cls-1" d="M692.37,304.22l-13.12.28-6.66.11c-2.23.05-4.47,0-6.7.06h-.44v-.45L665.39,293v-.5h.5l13.24.06c4.42,0,8.83.11,13.24.16h.28V293c0,1.9-.08,3.79-.13,5.66Zm0,0-.14-5.65c-.05-1.86-.11-3.7-.13-5.54l.27.28c-4.41.05-8.82.16-13.24.16l-13.24.06.5-.5,0,11.19-.45-.44c2.18,0,4.36,0,6.55.05L679,304Z" transform="translate(-42.35 -50.69)"/><path class="cls-1" d="M677.6,318.33l-13.12.28-6.67.11c-2.22,0-4.46,0-6.69.06h-.44v-.45l0-11.19v-.5h.5l13.24.07c4.41,0,8.83.11,13.24.16h.28v.27c0,1.9-.08,3.79-.13,5.66Zm0,0-.14-5.65c-.05-1.86-.11-3.7-.13-5.54l.27.28c-4.41.05-8.83.16-13.24.16l-13.24.06.5-.5,0,11.19-.45-.44c2.18,0,4.36,0,6.55.05l6.57.12Z" transform="translate(-42.35 -50.69)"/><path class="cls-1" d="M707.14,318.33l-13.12.28-6.66.11c-2.23,0-4.47,0-6.7.06h-.44v-.45l-.06-11.19v-.5h.5l13.24.07c4.42,0,8.83.11,13.24.16h.28v.27c0,1.9-.09,3.79-.13,5.66Zm0,0-.14-5.65c0-1.86-.11-3.7-.13-5.54l.27.28c-4.41.05-8.82.16-13.24.16l-13.24.06.5-.5,0,11.19-.45-.44c2.19,0,4.36,0,6.55.05l6.58.12Z" transform="translate(-42.35 -50.69)"/><path class="cls-1" d="M314.79,171.07l-13.12.28-6.66.11c-2.23,0-4.47,0-6.7,0h-.44v-.45l-.06-11.19v-.5h.5l13.24.06c4.42,0,8.83.11,13.24.16h.28v.27c0,1.9-.09,3.78-.14,5.65Zm0,0-.14-5.66c0-1.86-.11-3.7-.13-5.53l.27.27c-4.41,0-8.82.16-13.24.16l-13.24.07.5-.5-.05,11.19-.45-.45c2.18,0,4.36,0,6.55.06l6.58.11Z" transform="translate(-42.35 -50.69)"/><path class="cls-1" d="M300,185.18l-13.12.28-6.67.11c-2.22,0-4.46,0-6.69.05h-.44v-.45L273,174v-.5h.5l13.24.06c4.41,0,8.83.11,13.24.16h.28V174c0,1.9-.08,3.78-.13,5.65Zm0,0-.14-5.66c-.05-1.86-.11-3.7-.13-5.53l.27.27c-4.41.05-8.83.16-13.24.16l-13.24.07.5-.5L274,185.18l-.45-.45c2.18,0,4.36,0,6.55.06l6.57.11Z" transform="translate(-42.35 -50.69)"/><path class="cls-1" d="M329.56,185.18l-13.12.28-6.66.11c-2.23,0-4.46,0-6.7.05h-.44v-.45L302.58,174v-.5h.5l13.24.06c4.42,0,8.83.11,13.24.16h.28V174c0,1.9-.09,3.78-.13,5.65Zm0,0-.14-5.66c0-1.86-.11-3.7-.13-5.53l.27.27c-4.41.05-8.82.16-13.24.16l-13.24.07.5-.5-.05,11.19-.45-.45c2.19,0,4.36,0,6.55.06l6.58.11Z" transform="translate(-42.35 -50.69)"/><path class="cls-1" d="M98.88,245.11l-13.12.28-6.67.11c-2.22,0-4.46,0-6.69.05H72v-.45l0-11.19v-.5h.5l13.24.06c4.41,0,8.83.11,13.24.16h.28v.27c0,1.9-.08,3.78-.13,5.65Zm0,0-.14-5.66c0-1.86-.11-3.7-.13-5.53l.27.27c-4.41.05-8.83.16-13.24.16l-13.24.07.5-.5-.05,11.19-.45-.45c2.18,0,4.36,0,6.55.06l6.57.11Z" transform="translate(-42.35 -50.69)"/><path class="cls-1" d="M537.86,171.06l-13.12.28-6.66.11c-2.23.05-4.47,0-6.7.05h-.44v-.45l-.06-11.19v-.5h.5l13.24.06c4.42,0,8.83.12,13.24.17h.28v.27c0,1.9-.08,3.79-.13,5.65Zm0,0-.14-5.65c-.05-1.87-.11-3.71-.13-5.54l.27.27c-4.41.05-8.82.16-13.24.17l-13.24.06.5-.5-.05,11.19-.45-.45c2.18,0,4.36,0,6.55.06l6.58.11Z" transform="translate(-42.35 -50.69)"/><path class="cls-1" d="M690.84,62.38l-13.12.28-6.67.11c-2.22,0-4.46,0-6.69.06h-.44v-.45l0-11.19v-.5h.5l13.24.06c4.41,0,8.83.12,13.24.17h.28v.27c0,1.9-.08,3.79-.13,5.65Zm0,0-.14-5.65c-.05-1.87-.11-3.71-.13-5.54l.27.27c-4.41,0-8.83.16-13.24.17l-13.24.06.5-.5-.05,11.19-.45-.45c2.18,0,4.36,0,6.55.06l6.57.11Z" transform="translate(-42.35 -50.69)"/><path class="cls-1" d="M705.61,76.49l-13.12.28-6.66.11c-2.23.05-4.47,0-6.7.06h-.44v-.45l-.06-11.19v-.5h.5l13.24.06c4.42,0,8.83.12,13.24.17h.28v.27c0,1.9-.09,3.79-.14,5.65Zm0,0-.14-5.65c0-1.87-.11-3.71-.13-5.54l.27.27c-4.41.05-8.82.16-13.24.17l-13.24.06.5-.5,0,11.19-.45-.45c2.18,0,4.36,0,6.55.06l6.58.11Z" transform="translate(-42.35 -50.69)"/><path class="cls-1" d="M69.34,62.39l-13.13.28-6.66.11c-2.22,0-4.46,0-6.69.06h-.45v-.45l0-11.19v-.5h.51l13.24.07c4.41,0,8.82.11,13.24.16h.27v.27c0,1.9-.09,3.79-.13,5.66Zm0,0-.15-5.65c0-1.86-.11-3.71-.13-5.54l.28.27c-4.42.06-8.83.16-13.24.17l-13.24.06.5-.5L43.3,62.39,42.86,62c2.18,0,4.35,0,6.54,0l6.58.11Z" transform="translate(-42.35 -50.69)"/><rect class="cls-2" x="136.1" y="2.53" width="118.54" height="79.88"/><path class="cls-1" d="M297.49,133.6H178V52.72H297.49ZM179,132.6H296.49V53.72H179Z" transform="translate(-42.35 -50.69)"/><path class="cls-3" d="M212.77,59.26A2.73,2.73,0,1,1,210,56.53,2.73,2.73,0,0,1,212.77,59.26Z" transform="translate(-42.35 -50.69)"/><path class="cls-4" d="M201.06,59.26a2.73,2.73,0,1,1-2.73-2.73A2.73,2.73,0,0,1,201.06,59.26Z" transform="translate(-42.35 -50.69)"/><path class="cls-5" d="M190,59.26a2.73,2.73,0,1,1-2.73-2.73A2.73,2.73,0,0,1,190,59.26Z" transform="translate(-42.35 -50.69)"/><rect class="cls-1" x="136.1" y="14.06" width="118.54" height="1"/><path class="cls-6" d="M200,158.58c0-1.25.17-4.58.17-6,0-6.08-2.17-8.83-7.83-9-2.66-.16-4.24-1.74-4.24-4s1.58-3.83,4.24-4c5.66-.25,7.83-2.91,7.83-9.08,0-1.41-.17-4.74-.17-6,0-8.08,3.42-13.24,16.32-16.07,2.59-.59,4.58,1,4.58,3.41a3.49,3.49,0,0,1-2.33,3.41c-8.07,2.5-9.24,5.08-9.24,10.75,0,1.66.17,4.41.17,6.16,0,6.49-3.17,9.66-8.66,11.41,5.58,1.83,8.66,4.91,8.66,11.41,0,1.74-.17,4.49-.17,6.16,0,5.66,1.17,8.24,9.24,10.74a3.49,3.49,0,0,1,2.33,3.41c0,2.42-2,4-4.58,3.42C203.42,171.91,200,166.74,200,158.58Z" transform="translate(-42.35 -50.69)"/><path class="cls-6" d="M248.8,120.53c0,1.25-.17,4.58-.17,6,0,6.17,2.25,8.83,7.92,9.08,2.58.17,4.16,1.75,4.16,4s-1.58,3.83-4.16,4c-5.67.17-7.92,2.92-7.92,9,0,1.41.17,4.74.17,6,0,8.16-3.41,13.33-16.32,16.16-2.58.58-4.58-1-4.58-3.42a3.45,3.45,0,0,1,2.41-3.41c8-2.5,9.16-5.08,9.16-10.74,0-1.67-.16-4.42-.16-6.16,0-6.5,3.16-9.66,8.66-11.41-5.58-1.83-8.66-4.92-8.66-11.41,0-1.75.16-4.5.16-6.16,0-5.67-1.16-8.25-9.16-10.75a3.45,3.45,0,0,1-2.41-3.41c0-2.41,2-4,4.58-3.41C245.39,107.29,248.8,112.45,248.8,120.53Z" transform="translate(-42.35 -50.69)"/><path class="cls-6" d="M614.58,210.8a3.39,3.39,0,0,1-2.37,5.81,3.58,3.58,0,0,1-2.48-1L594.61,200.3a.41.41,0,0,1-.27-.32l-.16-.11a1.54,1.54,0,0,1-.17-.43.3.3,0,0,1-.16-.21c-.05-.11-.05-.27-.1-.33s-.11-.21-.11-.26v-.38c0-.11-.06-.16-.06-.32s.06-.22.06-.27v-.38c0-.11.11-.16.11-.22s0-.26.1-.43.06,0,.06-.1a3.17,3.17,0,0,1,.27-.49s0-.11.1-.11a1.2,1.2,0,0,1,.33-.37l15.12-15.34a3.52,3.52,0,0,1,4.85,0,3.42,3.42,0,0,1,0,4.84l-12.76,12.87Z" transform="translate(-42.35 -50.69)"/><path class="cls-6" d="M628.3,212.52l13.19-31.38a3,3,0,0,1,3.93-1.56,2.9,2.9,0,0,1,1.5,3.82l-13.18,31.44a3,3,0,0,1-2.75,1.77,2.63,2.63,0,0,1-1.08-.21A2.91,2.91,0,0,1,628.3,212.52Z" transform="translate(-42.35 -50.69)"/><path class="cls-6" d="M673,199.87s0,.06-.05.06a2.69,2.69,0,0,1-.38.37l-15.12,15.34a3.52,3.52,0,0,1-4.85,0,3.42,3.42,0,0,1,0-4.84l12.76-12.86-12.76-12.87a3.42,3.42,0,0,1,0-4.84,3.52,3.52,0,0,1,4.85,0l15.12,15.34a3.38,3.38,0,0,1,.38.37c.05,0,.05.11.05.11a4.37,4.37,0,0,1,.27.49c0,.05.06.05.06.1a2.12,2.12,0,0,0,.16.49c0,.05,0,.05,0,.16v.38c0,.05,0,.21,0,.27s0,.21,0,.26v.44c0,.05,0,.05,0,.1a3.75,3.75,0,0,0-.16.49c0,.05-.06.05-.06.16S673.08,199.66,673,199.87Z" transform="translate(-42.35 -50.69)"/><path class="cls-7" d="M586.5,133.33a12.9,12.9,0,0,1-12,12.87v0H501.46A15.17,15.17,0,0,1,500,116a25.56,25.56,0,0,1,49.53-8A15.18,15.18,0,0,1,571.5,120.6a12,12,0,0,1,2.09-.17A12.91,12.91,0,0,1,586.5,133.33Z" transform="translate(-42.35 -50.69)"/><path class="cls-8" d="M693.78,309.71l8.3-13.37L698,293.79a3.73,3.73,0,0,1-1.71-3.52,21.81,21.81,0,0,0,.07-2.29,3.79,3.79,0,0,1,1.95-3.44l4.25-2.27-7.44-13.87-4.24,2.27a3.66,3.66,0,0,1-3.85-.21,23.52,23.52,0,0,0-2.13-1.32,3.65,3.65,0,0,1-1.9-3.35l.15-4.82-15.73-.48-.14,4.83a3.67,3.67,0,0,1-2.14,3.22l-1.09.55-1.06.61a3.68,3.68,0,0,1-3.85,0L655,267.14l-8.29,13.37,4.13,2.56a3.74,3.74,0,0,1,1.71,3.52,19.4,19.4,0,0,0-.08,2.29,3.8,3.8,0,0,1-2,3.43l-4.25,2.28,7.44,13.87,4.24-2.28a3.78,3.78,0,0,1,3.94.27c.63.44,1.29.84,1.95,1.21a3.72,3.72,0,0,1,2,3.36l-.15,4.86,15.72.49.15-4.83a3.74,3.74,0,0,1,2.19-3.24c.35-.17.7-.34,1-.53s.68-.37,1-.57a3.74,3.74,0,0,1,3.93,0ZM681.9,298.9a12.89,12.89,0,1,1,4.55-15A12.89,12.89,0,0,1,681.9,298.9Z" transform="translate(-42.35 -50.69)"/><path class="cls-8" d="M606.94,341.5l9.55-5.51-1.69-2.92a2.62,2.62,0,0,1,.09-2.75,15.48,15.48,0,0,0,.83-1.42,2.61,2.61,0,0,1,2.33-1.45h3.37v-11h-3.37a2.63,2.63,0,0,1-2.33-1.45,14.25,14.25,0,0,0-.83-1.42,2.62,2.62,0,0,1-.09-2.75l1.69-2.92-9.55-5.51-1.69,2.93a2.62,2.62,0,0,1-2.43,1.29c-.27,0-.54,0-.81,0s-.54,0-.81,0a2.6,2.6,0,0,1-2.42-1.28l-1.7-2.94-9.55,5.51,1.69,2.93a2.58,2.58,0,0,1-.1,2.74c-.3.46-.57.94-.82,1.42a2.61,2.61,0,0,1-2.33,1.45H582.6v11H586a2.62,2.62,0,0,1,2.33,1.44,14.17,14.17,0,0,0,.82,1.42,2.6,2.6,0,0,1,.1,2.75L587.53,336l9.55,5.51,1.69-2.93a2.6,2.6,0,0,1,2.42-1.28c.27,0,.54,0,.82,0s.54,0,.81,0a2.62,2.62,0,0,1,2.43,1.28ZM602,331a9,9,0,1,1,9-9A9,9,0,0,1,602,331Z" transform="translate(-42.35 -50.69)"/><path class="cls-8" d="M122.22,103.5a2.63,2.63,0,0,1,1.28,2.43c0,.27,0,.54,0,.82s0,.54,0,.81a2.63,2.63,0,0,1-1.28,2.43l-2.93,1.69,5.51,9.55,2.93-1.69a2.62,2.62,0,0,1,2.75.09,14.25,14.25,0,0,0,1.42.83,2.59,2.59,0,0,1,1.44,2.32v3.38h11v-3.38a2.6,2.6,0,0,1,1.45-2.32,15.48,15.48,0,0,0,1.42-.83,2.62,2.62,0,0,1,2.75-.09l2.93,1.69,5.5-9.55-2.94-1.7a2.63,2.63,0,0,1-1.27-2.42c0-.27,0-.54,0-.81s0-.55,0-.82a2.61,2.61,0,0,1,1.28-2.43l2.93-1.69-5.5-9.54L150,94a2.63,2.63,0,0,1-2.74-.1,15.55,15.55,0,0,0-1.43-.82,2.63,2.63,0,0,1-1.45-2.33V87.33h-11v3.38A2.62,2.62,0,0,1,131.9,93a14.33,14.33,0,0,0-1.43.82,2.64,2.64,0,0,1-2.75.1l-2.92-1.69-5.51,9.54Zm16.63-5.79a9,9,0,1,1-9,9A9,9,0,0,1,138.85,97.71Z" transform="translate(-42.35 -50.69)"/></g><g id="Chair_2" data-name="Chair 2"><polygon class="cls-9" points="339.92 368.07 451.88 368.07 429.56 238.22 345.84 238.22 339.92 368.07"/><polygon class="cls-7" points="339.92 368.07 349.74 368.07 355.25 238.22 345.84 238.22 339.92 368.07"/></g><g id="Chair_1" data-name="Chair 1"><polygon class="cls-9" points="327.54 368.07 215.59 368.07 237.91 238.22 321.63 238.22 327.54 368.07"/><polygon class="cls-7" points="327.54 368.07 317.72 368.07 312.21 238.22 321.63 238.22 327.54 368.07"/></g><g id="Windows"><rect class="cls-3" x="488.96" y="164.74" width="131.72" height="65.77"/><path class="cls-1" d="M663.86,281.85H530.48V214.78H663.86Zm-131.72-1.3H662.19V216.08H532.14Z" transform="translate(-42.35 -50.69)"/><rect class="cls-10" x="489.55" y="164.52" width="131.9" height="12.44"/><path class="cls-1" d="M665.39,228.52H530.48V214.78H665.39Zm-133.23-1.3H663.71V216.08H532.16Z" transform="translate(-42.35 -50.69)"/><path class="cls-7" d="M542.8,221.74a3.13,3.13,0,1,1-3.13-3.13A3.13,3.13,0,0,1,542.8,221.74Z" transform="translate(-42.35 -50.69)"/><path class="cls-1" d="M555.59,221.74a3.13,3.13,0,1,1-3.13-3.13A3.13,3.13,0,0,1,555.59,221.74Z" transform="translate(-42.35 -50.69)"/><path class="cls-3" d="M568.37,221.74a3.13,3.13,0,1,1-3.13-3.13A3.13,3.13,0,0,1,568.37,221.74Z" transform="translate(-42.35 -50.69)"/><rect class="cls-3" x="54.49" y="171.39" width="103.1" height="65.77"/><path class="cls-1" d="M200.59,288.5H96.19V221.43h104.4Zm-103.1-1.31h101.8V222.73H97.49Z" transform="translate(-42.35 -50.69)"/><rect class="cls-8" x="54.49" y="171.39" width="103.1" height="12.44"/><path class="cls-1" d="M200.59,235.17H96.19V221.43h104.4Zm-103.1-1.31h101.8V222.73H97.49Z" transform="translate(-42.35 -50.69)"/><path class="cls-7" d="M108.52,228.39a3.13,3.13,0,1,1-3.13-3.13A3.13,3.13,0,0,1,108.52,228.39Z" transform="translate(-42.35 -50.69)"/><path class="cls-1" d="M121.3,228.39a3.13,3.13,0,1,1-3.13-3.13A3.13,3.13,0,0,1,121.3,228.39Z" transform="translate(-42.35 -50.69)"/><path class="cls-3" d="M134.08,228.39a3.13,3.13,0,1,1-3.13-3.13A3.13,3.13,0,0,1,134.08,228.39Z" transform="translate(-42.35 -50.69)"/><rect class="cls-2" x="221.01" y="13.3" width="223.81" height="141.2"/><path class="cls-1" d="M487.82,205.84H262.71V63.34H487.82ZM264,204.54H486.52V64.64H264Z" transform="translate(-42.35 -50.69)"/><rect class="cls-10" x="221.01" y="13.3" width="223.81" height="12.44"/><path class="cls-1" d="M487.82,77.08H262.71V63.34H487.82ZM264,75.77H486.52V64.64H264Z" transform="translate(-42.35 -50.69)"/><path class="cls-7" d="M275,70.3a3.13,3.13,0,1,1-3.13-3.13A3.13,3.13,0,0,1,275,70.3Z" transform="translate(-42.35 -50.69)"/><path class="cls-1" d="M287.82,70.3a3.13,3.13,0,1,1-3.13-3.13A3.13,3.13,0,0,1,287.82,70.3Z" transform="translate(-42.35 -50.69)"/><path class="cls-3" d="M300.6,70.3a3.13,3.13,0,1,1-3.13-3.13A3.13,3.13,0,0,1,300.6,70.3Z" transform="translate(-42.35 -50.69)"/><rect class="cls-1" x="234.35" y="50.48" width="6.65" height="2.43"/><rect class="cls-1" x="245.85" y="50.48" width="107.4" height="2.43"/><rect class="cls-11" x="357.33" y="50.48" width="12.63" height="2.43"/><rect class="cls-1" x="377.54" y="82.98" width="12.63" height="2.43"/><rect class="cls-7" x="372.7" y="50.48" width="42.58" height="2.43"/><rect class="cls-1" x="241" y="56.98" width="6.65" height="2.43"/><rect class="cls-7" x="252.33" y="56.98" width="50.06" height="2.43"/><rect class="cls-7" x="355.61" y="82.98" width="18.93" height="2.43"/><rect class="cls-7" x="245.85" y="76.48" width="47.81" height="2.43"/><rect class="cls-11" x="252.33" y="63.48" width="33.54" height="2.43"/><rect class="cls-7" x="365.77" y="69.98" width="33.54" height="2.43"/><rect class="cls-7" x="289.59" y="63.48" width="84.68" height="2.43"/><rect class="cls-11" x="245.85" y="82.98" width="105.43" height="2.43"/><rect class="cls-11" x="371.3" y="56.98" width="55.4" height="2.43"/><rect class="cls-1" x="305.53" y="56.98" width="63.02" height="2.43"/><rect class="cls-1" x="397.54" y="63.48" width="21.53" height="2.43"/><rect class="cls-1" x="241" y="63.48" width="6.65" height="2.43"/><rect class="cls-7" x="234.35" y="69.98" width="6.65" height="2.43"/><rect class="cls-1" x="245.85" y="69.98" width="39.3" height="2.43"/><rect class="cls-1" x="252.33" y="89.48" width="39.3" height="2.43"/><rect class="cls-11" x="356.73" y="95.98" width="50.62" height="2.43"/><rect class="cls-11" x="294.82" y="89.48" width="70.53" height="2.43"/><rect class="cls-1" x="287.87" y="95.98" width="65.43" height="2.43"/><rect class="cls-7" x="252.33" y="95.98" width="11.38" height="2.43"/><rect class="cls-1" x="296.36" y="76.48" width="73.6" height="2.43"/><rect class="cls-11" x="372.7" y="76.48" width="47.77" height="2.43"/><rect class="cls-11" x="289.14" y="69.98" width="73.54" height="2.43"/><rect class="cls-1" x="234.35" y="76.48" width="6.65" height="2.43"/><rect class="cls-1" x="234.35" y="82.98" width="6.65" height="2.43"/><rect class="cls-7" x="241" y="89.48" width="6.65" height="2.43"/><rect class="cls-1" x="241" y="95.98" width="6.65" height="2.43"/><rect class="cls-1" x="234.35" y="101.43" width="6.65" height="2.43"/><rect class="cls-1" x="245.85" y="101.43" width="77.97" height="2.43"/><rect class="cls-1" x="241" y="107.93" width="6.65" height="2.43"/><rect class="cls-7" x="252.33" y="107.93" width="50.06" height="2.43"/><rect class="cls-7" x="245.85" y="127.43" width="47.81" height="2.43"/><rect class="cls-11" x="252.33" y="114.43" width="33.54" height="2.43"/><rect class="cls-7" x="289.59" y="114.43" width="84.68" height="2.43"/><rect class="cls-11" x="245.85" y="133.93" width="105.43" height="2.43"/><rect class="cls-11" x="371.3" y="107.93" width="55.4" height="2.43"/><rect class="cls-1" x="305.53" y="107.93" width="63.02" height="2.43"/><rect class="cls-1" x="397.54" y="114.43" width="21.53" height="2.43"/><rect class="cls-1" x="241" y="114.43" width="6.65" height="2.43"/><rect class="cls-7" x="234.35" y="120.93" width="6.65" height="2.43"/><rect class="cls-1" x="245.85" y="120.93" width="39.3" height="2.43"/><rect class="cls-1" x="296.36" y="127.43" width="73.6" height="2.43"/><rect class="cls-11" x="289.14" y="120.93" width="73.54" height="2.43"/><rect class="cls-1" x="234.35" y="127.43" width="6.65" height="2.43"/><path class="cls-11" d="M280.81,94.77a.58.58,0,0,1-.4,1,.63.63,0,0,1-.42-.17L277.43,93a.08.08,0,0,1-.05,0l0,0a.64.64,0,0,0,0-.07.05.05,0,0,1,0,0s0,0,0-.06,0,0,0,0v-.07a.2.2,0,0,1,0,0s0,0,0,0v-.06s0,0,0,0a.64.64,0,0,0,0-.07s0,0,0,0l0-.08a0,0,0,0,1,0,0,.17.17,0,0,1,.06-.06l2.56-2.6a.59.59,0,0,1,.82,0,.57.57,0,0,1,0,.82l-2.16,2.18Z" transform="translate(-42.35 -50.69)"/><path class="cls-11" d="M283.14,95.06l2.23-5.32a.51.51,0,0,1,.67-.26.49.49,0,0,1,.25.65l-2.23,5.33a.51.51,0,0,1-.47.3.42.42,0,0,1-.18,0A.5.5,0,0,1,283.14,95.06Z" transform="translate(-42.35 -50.69)"/><path class="cls-11" d="M290.71,92.92a0,0,0,0,1,0,0l-.06.06-2.57,2.6a.58.58,0,0,1-.41.17.6.6,0,0,1-.41-.17.57.57,0,0,1,0-.82l2.16-2.18-2.16-2.18a.57.57,0,0,1,0-.82.59.59,0,0,1,.82,0l2.57,2.6.06.06s0,0,0,0,0,0,.05.08,0,0,0,0a.12.12,0,0,0,0,.08s0,0,0,0v.06s0,0,0,0,0,0,0,0v.07s0,0,0,0a.13.13,0,0,0,0,.08s0,0,0,0Z" transform="translate(-42.35 -50.69)"/><rect class="cls-6" x="434.18" y="118.85" width="85.57" height="26"/><polygon class="cls-2" points="560.5 241.66 564.89 252.27 560.5 254.08 556.09 243.41 548.84 249.03 548.84 219.15 569.75 240.28 560.5 241.66"/><path class="cls-2" d="M591.19,266.59a4.25,4.25,0,0,1-.26-1.51,4,4,0,0,1,.26-1.5,3.78,3.78,0,0,1,.27,1.5A4.05,4.05,0,0,1,591.19,266.59Z" transform="translate(-42.35 -50.69)"/><path class="cls-2" d="M588.61,267.66a4,4,0,0,1-1.25-.88,3.91,3.91,0,0,1-.88-1.25,4.47,4.47,0,0,1,2.13,2.13Z" transform="translate(-42.35 -50.69)"/><path class="cls-2" d="M587.54,270.24a4,4,0,0,1-1.51.27,4,4,0,0,1-1.5-.27A4,4,0,0,1,586,270,4,4,0,0,1,587.54,270.24Z" transform="translate(-42.35 -50.69)"/><path class="cls-2" d="M588.61,272.83a4,4,0,0,1-.88,1.25,3.74,3.74,0,0,1-1.25.87,3.87,3.87,0,0,1,.88-1.24A4,4,0,0,1,588.61,272.83Z" transform="translate(-42.35 -50.69)"/><path class="cls-2" d="M594.85,270.24a4.49,4.49,0,0,1,3,0,4.33,4.33,0,0,1-3,0Z" transform="translate(-42.35 -50.69)"/><path class="cls-2" d="M593.78,267.66a4.47,4.47,0,0,1,2.13-2.13,3.91,3.91,0,0,1-.88,1.25A4,4,0,0,1,593.78,267.66Z" transform="translate(-42.35 -50.69)"/><rect class="cls-8" x="112.42" y="138.05" width="103.35" height="26.29"/><path class="cls-12" d="M158.15,201.61v-1.22l4.64-3V199l-3.19,2V201l3.19,2v1.6Z" transform="translate(-42.35 -50.69)"/><path class="cls-12" d="M165.05,201c0-2.61,1.28-4,3.15-4s3.14,1.41,3.14,4-1.28,4.09-3.14,4.09S165.05,203.71,165.05,201Zm4.48,0c0-1.62-.52-2.49-1.33-2.49s-1.33.87-1.33,2.49.51,2.56,1.33,2.56S169.53,202.73,169.53,201Z" transform="translate(-42.35 -50.69)"/><path class="cls-12" d="M173.33,197.17h2.77c1.7,0,3.06.61,3.06,2.51s-1.4,2.65-3.06,2.65h-1V205h-1.77Zm2.67,3.76c1,0,1.43-.44,1.43-1.25s-.5-1.11-1.43-1.11h-.9v2.36Z" transform="translate(-42.35 -50.69)"/><path class="cls-12" d="M181.38,197.17h5.18v1.48h-3.41v1.57H186v1.48h-2.89v1.8h3.53V205h-5.3Z" transform="translate(-42.35 -50.69)"/><path class="cls-12" d="M188.9,197.17h1.81l1.65,3.88.66,1.72h0c-.08-.82-.25-1.92-.25-2.84v-2.76h1.69V205h-1.82l-1.64-3.89-.67-1.71h0c.08.86.24,1.91.24,2.83V205H188.9Z" transform="translate(-42.35 -50.69)"/><path class="cls-12" d="M196.78,200.4h5.52v1.25h-5.52Z" transform="translate(-42.35 -50.69)"/><path class="cls-12" d="M204.38,204l1-1.22a3.31,3.31,0,0,0,2.07.82c.75,0,1.1-.29,1.1-.67,0-.57-.46-.7-1.2-1l-1-.44a2.27,2.27,0,0,1-1.66-2.13c0-1.29,1.17-2.33,2.87-2.33a3.77,3.77,0,0,1,2.59,1l-.89,1.11a2.84,2.84,0,0,0-1.8-.61c-.58,0-1,.24-1,.7s.53.64,1.28.92l1,.41a2.18,2.18,0,0,1,1.67,2.12c0,1.3-1.09,2.43-3,2.43A4.52,4.52,0,0,1,204.38,204Z" transform="translate(-42.35 -50.69)"/><path class="cls-12" d="M212.07,201c0-2.61,1.28-4,3.14-4s3.14,1.41,3.14,4-1.28,4.09-3.14,4.09S212.07,203.71,212.07,201Zm4.47,0c0-1.62-.51-2.49-1.33-2.49s-1.33.87-1.33,2.49.52,2.56,1.33,2.56S216.54,202.73,216.54,201Z" transform="translate(-42.35 -50.69)"/><path class="cls-12" d="M220.21,202v-4.81H222v5c0,.94.34,1.45,1.08,1.45s1.1-.51,1.1-1.45v-5h1.71V202c0,2-.92,3.15-2.81,3.15S220.21,204,220.21,202Z" transform="translate(-42.35 -50.69)"/><path class="cls-12" d="M228.12,197.17h2.78c1.65,0,3,.57,3,2.43s-1.36,2.57-3,2.57h-1V205h-1.77Zm2.63,3.6c.93,0,1.43-.4,1.43-1.17s-.5-1-1.43-1h-.86v2.2Zm1-.2,2.5,4.41h-2l-1.74-3.27Z" transform="translate(-42.35 -50.69)"/><path class="cls-12" d="M235.77,201.12c0-2.59,1.64-4.1,3.73-4.1a3.34,3.34,0,0,1,2.33,1l-1,1.09a1.92,1.92,0,0,0-1.36-.56c-1.11,0-1.92.95-1.92,2.51s.81,2.54,2,2.54a1.9,1.9,0,0,0,1.41-.69l1,1.07a3.23,3.23,0,0,1-2.56,1.15C237.45,205.13,235.77,203.75,235.77,201.12Z" transform="translate(-42.35 -50.69)"/><path class="cls-12" d="M244.06,197.17h5.18v1.48h-3.41v1.57h2.9v1.48h-2.9v1.8h3.53V205h-5.3Z" transform="translate(-42.35 -50.69)"/><path class="cls-12" d="M252,203l3.18-2V201L252,199v-1.6l4.64,3v1.22l-4.64,3Z" transform="translate(-42.35 -50.69)"/><path class="cls-7" d="M111.9,258.37c0-7.78,4.92-12.29,11.21-12.29a10.05,10.05,0,0,1,7,3l-2.92,3.29a5.7,5.7,0,0,0-4.07-1.68c-3.34,0-5.77,2.83-5.77,7.52s2.43,7.63,6,7.63a5.7,5.7,0,0,0,4.23-2.08l2.92,3.22a9.69,9.69,0,0,1-7.69,3.44C116.93,270.4,111.9,266.28,111.9,258.37Z" transform="translate(-42.35 -50.69)"/><path class="cls-7" d="M141.6,251h-7v-4.45h19.37V251h-7v19H141.6Z" transform="translate(-42.35 -50.69)"/><path class="cls-7" d="M160.74,246.51h15.6V251H166.05v5.44h8.78v4.45h-8.78V270h-5.31Z" transform="translate(-42.35 -50.69)"/><path class="cls-8" d="M113.56,258.64c0-7.78,4.92-12.29,11.21-12.29a10.1,10.1,0,0,1,7,3l-2.93,3.29a5.7,5.7,0,0,0-4.07-1.68c-3.33,0-5.77,2.83-5.77,7.52s2.44,7.63,6,7.63A5.7,5.7,0,0,0,129.2,264l2.92,3.22a9.69,9.69,0,0,1-7.69,3.44C118.6,270.67,113.56,266.55,113.56,258.64Z" transform="translate(-42.35 -50.69)"/><path class="cls-8" d="M143.26,251.23h-7v-4.45H155.6v4.45h-7v19h-5.31Z" transform="translate(-42.35 -50.69)"/><path class="cls-8" d="M162.4,246.78H178v4.45H167.71v5.44h8.78v4.45h-8.78v9.12H162.4Z" transform="translate(-42.35 -50.69)"/><path class="cls-7" d="M535.85,239.37H539v5.27h3.71v-5.27h3.11v13.68h-3.11v-5.71H539v5.71h-3.1Z" transform="translate(-42.35 -50.69)"/><path class="cls-7" d="M552.67,239.37h3.71l4.26,13.68h-3.29l-1.76-6.92c-.35-1.37-.76-3-1.09-4.42h-.09c-.33,1.45-.71,3-1.06,4.42l-1.78,6.92H548.4Zm-1.45,8h6.55v2.41h-6.55Z" transform="translate(-42.35 -50.69)"/><path class="cls-7" d="M563.07,246.29c0-4.54,2.87-7.17,6.54-7.17a5.87,5.87,0,0,1,4.08,1.74l-1.7,1.92a3.34,3.34,0,0,0-2.38-1c-1.94,0-3.36,1.65-3.36,4.4s1.42,4.44,3.48,4.44a3.32,3.32,0,0,0,2.47-1.21l1.7,1.88a5.66,5.66,0,0,1-4.49,2C566,253.31,563.07,250.9,563.07,246.29Z" transform="translate(-42.35 -50.69)"/><path class="cls-7" d="M577.06,239.37h3.14V245h.07l4-5.59h3.44l-7.55,9.95v3.73h-3.14Zm4.45,7.33,1.82-2.41,4.8,8.76h-3.44Z" transform="translate(-42.35 -50.69)"/><path class="cls-7" d="M593.8,239.37h3.71l4.27,13.68h-3.29l-1.76-6.92c-.35-1.37-.77-3-1.1-4.42h-.08c-.33,1.45-.72,3-1.06,4.42l-1.78,6.92h-3.17Zm-1.44,8h6.55v2.41h-6.55Z" transform="translate(-42.35 -50.69)"/><path class="cls-7" d="M607.82,242h-4.1v-2.6H615V242h-4.1v11.08h-3.1Z" transform="translate(-42.35 -50.69)"/><path class="cls-7" d="M618.13,239.37h3.1v5.27h3.71v-5.27H628v13.68h-3.1v-5.71h-3.71v5.71h-3.1Z" transform="translate(-42.35 -50.69)"/><path class="cls-7" d="M631.29,246.15c0-4.57,2.25-7,5.51-7s5.5,2.46,5.5,7-2.24,7.16-5.5,7.16S631.29,250.83,631.29,246.15Zm7.83,0c0-2.84-.9-4.36-2.32-4.36s-2.33,1.52-2.33,4.36.9,4.48,2.33,4.48S639.12,249.1,639.12,246.15Z" transform="translate(-42.35 -50.69)"/><path class="cls-7" d="M645.6,239.37h3.17l2.88,6.8,1.17,3h.08c-.14-1.44-.43-3.36-.43-5v-4.84h2.95v13.68h-3.17l-2.88-6.81-1.17-3h-.08c.14,1.52.43,3.35.43,5v4.85H645.6Z" transform="translate(-42.35 -50.69)"/><path class="cls-10" d="M538.26,238.72h3.11V244h3.71v-5.27h3.1V252.4h-3.1v-5.71h-3.71v5.71h-3.11Z" transform="translate(-42.35 -50.69)"/><path class="cls-10" d="M555.08,238.72h3.71l4.26,13.68h-3.28L558,245.48c-.34-1.37-.76-3-1.09-4.42h-.08c-.34,1.45-.72,3.05-1.07,4.42L554,252.4h-3.17Zm-1.44,8h6.54v2.41h-6.54Z" transform="translate(-42.35 -50.69)"/><path class="cls-10" d="M565.49,245.64c0-4.54,2.87-7.17,6.53-7.17a5.9,5.9,0,0,1,4.09,1.74l-1.71,1.91a3.35,3.35,0,0,0-2.38-1c-1.94,0-3.36,1.65-3.36,4.39s1.42,4.45,3.48,4.45a3.33,3.33,0,0,0,2.47-1.21l1.7,1.87a5.63,5.63,0,0,1-4.48,2C568.42,252.65,565.49,250.25,565.49,245.64Z" transform="translate(-42.35 -50.69)"/><path class="cls-10" d="M579.48,238.72h3.13v5.58h.08l4-5.58h3.44l-7.55,9.95v3.73h-3.13Zm4.45,7.33,1.81-2.42,4.8,8.77h-3.43Z" transform="translate(-42.35 -50.69)"/><path class="cls-10" d="M596.22,238.72h3.71l4.26,13.68h-3.28l-1.77-6.92c-.35-1.37-.76-3-1.09-4.42H598c-.33,1.45-.71,3.05-1.06,4.42l-1.78,6.92H592Zm-1.44,8h6.54v2.41h-6.54Z" transform="translate(-42.35 -50.69)"/><path class="cls-10" d="M610.24,241.32h-4.1v-2.6h11.3v2.6h-4.11V252.4h-3.09Z" transform="translate(-42.35 -50.69)"/><path class="cls-10" d="M620.54,238.72h3.1V244h3.71v-5.27h3.11V252.4h-3.11v-5.71h-3.71v5.71h-3.1Z" transform="translate(-42.35 -50.69)"/><path class="cls-10" d="M633.71,245.5c0-4.57,2.24-7,5.5-7s5.5,2.46,5.5,7-2.24,7.15-5.5,7.15S633.71,250.18,633.71,245.5Zm7.83,0c0-2.85-.9-4.36-2.33-4.36s-2.33,1.51-2.33,4.36.9,4.48,2.33,4.48S641.54,248.45,641.54,245.5Z" transform="translate(-42.35 -50.69)"/><path class="cls-10" d="M648,238.72h3.18l2.88,6.8,1.17,3h.07c-.14-1.44-.43-3.36-.43-5v-4.84h3V252.4h-3.17l-2.88-6.82-1.17-3h-.07c.14,1.52.43,3.35.43,5v4.85h-3Z" transform="translate(-42.35 -50.69)"/></g><g id="Character_2" data-name="Character 2"><path class="cls-2" d="M444.34,228.86c-13.77,11.81-9.94,29-15.69,38.36-3.51,5.7-15,11.73-17.24,18.31-3.74,10.81,5.42,14.69,3.37,20.57-2.9,8.32-14,7.68-16,21.29s13,28.11,48.53,32,55.09-9.1,56.37-20.65-10.56-15.4-11.36-24c-.52-5.51,6.79-9.35,7.16-19.49s-9.52-13.45-10.94-22.07,3.15-29.55-9.51-40.24S451.13,223,444.34,228.86Z" transform="translate(-42.35 -50.69)"/><path class="cls-2" d="M445.93,229.17a29.33,29.33,0,0,0-9.14,10.55,64.17,64.17,0,0,0-5.08,14,38.75,38.75,0,0,1-2.76,8.37,21.43,21.43,0,0,1-4.78,5.9c-3.84,3.47-8.43,6.12-11.89,10-3.27,3.7-5.82,8.65-4.51,13.7.71,2.74,2.52,5,3.65,7.54s1.49,5.45-.59,7.46c-1.78,1.72-4.36,2.51-6.38,3.93a22.32,22.32,0,0,0-5.19,5A17.39,17.39,0,0,0,396,329.32c2.09,11.06,12.47,17.35,22.05,21.32q2,.83,4,1.62c.21.08.39-.22.18-.31-9.62-4.3-20.78-9.35-24.47-20.1a16.21,16.21,0,0,1,1.66-14.28,20.44,20.44,0,0,1,5.07-5.34c1.94-1.43,4.17-2.31,6.14-3.66a6.54,6.54,0,0,0,3-5.85c-.12-2.59-1.39-4.86-2.64-7.07s-2.46-4.69-2.27-7.45a14.26,14.26,0,0,1,2.84-7.1c3-4.24,7.43-7,11.4-10.23s7.19-6.95,8.65-12c.74-2.54,1.2-5.15,1.83-7.71a69.29,69.29,0,0,1,2.12-7,33.64,33.64,0,0,1,7.52-12.39,19.44,19.44,0,0,1,2.94-2.41C446.17,229.28,446.05,229.09,445.93,229.17Z" transform="translate(-42.35 -50.69)"/><path class="cls-2" d="M505.21,330.3a13.33,13.33,0,0,0-2.46-5.18c-1.24-1.57-2.73-2.89-4.1-4.33a10.12,10.12,0,0,1-2.91-4.81c-.46-2.27.5-4.45,1.56-6.4a48.38,48.38,0,0,0,3.19-6.2,22.42,22.42,0,0,0,1.35-6.63,22.83,22.83,0,0,0-3.58-13.22c-1.21-2-2.57-3.88-3.8-5.85a28.39,28.39,0,0,1-3.15-6.91c-1.6-5.35-1.95-11-3.26-16.43a84.62,84.62,0,0,0-5.77-16.12c-.06-.13-.25,0-.19.11a74.35,74.35,0,0,1,5.05,14.57c1.13,4.76,1.56,9.61,2.4,14.42a36.25,36.25,0,0,0,1.81,6.93,37.58,37.58,0,0,0,3.08,5.94c2.41,3.92,4.89,7.78,5.55,12.43a21.7,21.7,0,0,1-2.29,13.31c-1.87,3.54-4.49,7.43-2.86,11.57,1.39,3.51,4.73,5.61,6.95,8.51a14,14,0,0,1,2.4,11.24c-1.91,10-11.89,14.9-21.23,15.39a.23.23,0,0,0,0,.45c8.12-.09,17-3.66,20.77-11.27A17.22,17.22,0,0,0,505.21,330.3Z" transform="translate(-42.35 -50.69)"/><path class="cls-13" d="M456.64,318.68c9,35.77,17.91,63.14,28.11,69.83,8.22,5.41,19.77,9.2,31.65,11.86a295.55,295.55,0,0,0,38.5,5.5c4,.33,7.3.54,9.66.71,5.82.37,15.36-38.09,11.23-42.79-.95-1.07-4.79-1.9-10.17-2.58-18.13-2.28-53.82-2.81-55.95-4.84s-20.41-27.6-36-47.62C462.89,294.91,451.65,298.84,456.64,318.68Z" transform="translate(-42.35 -50.69)"/><path class="cls-13" d="M552.87,402.7c.73.33,11,4.8,17.32,6.38,4.72,1.18,18.37,4.21,20.18-.85,1.24-3.45-6.58-6.18-12.06-8.23-2.89-1.08-6.51-3.93-5.74-5.79,1.35-3.25,8.8-.31,13.72,2.31,9.51,5.07,22.28,14.36,27.8,9.42,2.09-1.86-.53-5-4.3-8.08,6.06,3.5,12.5,6.32,14.9,4.33,1.37-1.12,1.38-2.61.53-4.26,1.86.52,3.47.35,4.55-.89,1.86-2.08.81-5-1.41-8a2.28,2.28,0,0,0,1.7-1.22c3.86-6.37-17.23-23.49-24.36-24.9-21-4.17-43-1.56-43-1.56C554.76,368.19,552.86,402.68,552.87,402.7Z" transform="translate(-42.35 -50.69)"/><path class="cls-2" d="M582.73,382.19A33.93,33.93,0,0,1,596.79,387c5,3.15,9,7.56,13.62,11.16.12.1,0,.29-.16.19-2.18-1.87-4.56-3.53-6.82-5.31s-4.36-3.57-6.68-5.15a33.65,33.65,0,0,0-14-5.64C582.66,382.27,582.67,382.18,582.73,382.19Z" transform="translate(-42.35 -50.69)"/><path class="cls-2" d="M586.27,373.23c5.52,1.29,11.18,2.59,16.34,5,5.66,2.62,10.17,7.07,14.6,11.35q4,3.85,7.82,7.89c.1.11,0,.3-.16.19Q618.12,391,611,384.79a44.43,44.43,0,0,0-15.05-8.73c-3.17-1.08-6.42-1.91-9.66-2.74C586.2,373.31,586.21,373.21,586.27,373.23Z" transform="translate(-42.35 -50.69)"/><path class="cls-2" d="M591.83,365.3c5.35.89,10,1.65,14.82,4.32,6.36,3.54,12.6,9.66,14.79,11.83,2.42,2.4,4.76,4.88,7.06,7.39.09.11-.09.27-.18.17a177.75,177.75,0,0,0-16.79-15.44,34.9,34.9,0,0,0-9.27-5.55,63.24,63.24,0,0,0-10.44-2.69A0,0,0,1,1,591.83,365.3Z" transform="translate(-42.35 -50.69)"/><path class="cls-11" d="M463.24,354.73l32.14-19s-13.72-22.16-25.44-32.63-16.45-2.25-14.67,13S463.24,354.73,463.24,354.73Z" transform="translate(-42.35 -50.69)"/><path class="cls-2" d="M490.32,331c-5.15,2.64-18.9,10.2-27.16,16.34-.05,0,.07.26.12.23,7.67-4,22.33-13.16,27.22-16.25C490.6,331.23,490.42,330.91,490.32,331Z" transform="translate(-42.35 -50.69)"/><path class="cls-2" d="M492.74,337.35l-29.49,17.38s-6.2-23.42-8-38.63c-1.14-9.81.41-16.71,4.82-17.55Z" transform="translate(-42.35 -50.69)"/><path class="cls-11" d="M494.29,418.64H388s23.08-89.14,44.45-114.23c.48-.58,1-1.13,1.46-1.64l.29-.3a22.81,22.81,0,0,1,5.71-4.42c.38-.2.75-.39,1.14-.56,8.23-3.78,16.92-.65,23.19,4.72,2,1.7,24.51,31,26.51,42.18,1.72,9.87-4.94,20.46-4.94,20.46Z" transform="translate(-42.35 -50.69)"/><path class="cls-2" d="M469.88,361a92.29,92.29,0,0,0-13.42,2.32c-2.19.58-4.33,1.26-6.47,2-1.07.36-2.14.68-3.22,1a14.64,14.64,0,0,1-3.46.69c-.1,0-.1.16,0,.16a24.65,24.65,0,0,0,3.33-.09,23.22,23.22,0,0,0,3.18-.63c2.22-.57,4.41-1.24,6.63-1.83,4.47-1.19,8.93-2.38,13.48-3.24C470.15,361.37,470.09,361,469.88,361Z" transform="translate(-42.35 -50.69)"/><path class="cls-2" d="M481.1,365a97.89,97.89,0,0,0-11.23-.44c-1.88,0-3.74.18-5.6.38q-1.35.15-2.67.33c-1,.13-1.94.39-2.92.51a.09.09,0,0,0,0,.17c.92-.09,1.87,0,2.8,0l2.8-.1c1.87-.06,3.74-.1,5.61-.18,3.74-.16,7.47-.28,11.21-.31C481.31,365.26,481.3,365,481.1,365Z" transform="translate(-42.35 -50.69)"/><path class="cls-13" d="M426.4,309.58c-20,28.15-45.95,77-32.61,86,21.95,14.76,82.34,18.73,96.14,19.08,5.95.15,14.09-39.46,9.69-44.06s-67.62-2.15-68.43-6c-.46-2.16,7.28-22.12,11.2-46.06C446.92,290.93,432,301.64,426.4,309.58Z" transform="translate(-42.35 -50.69)"/><path class="cls-13" d="M489,368.36s18-1.85,29.88-2.51c6.61-.36,18,0,23,2,7.45,2.92,36.73,19.89,32.77,27.08-3.59,6.51-26.89-11.27-26.89-11.27s25.1,15.86,19.34,22.9S537.67,390,537.67,390,563.1,406.86,556,413.18c-5.35,4.78-28-15.37-28-15.37s21.76,14.65,16.46,19.8c-5.85,5.69-27.91-11.6-27.91-11.6-15.67,10.83-27.56,9.57-35.91,7.67C478.64,413.22,489,368.36,489,368.36Z" transform="translate(-42.35 -50.69)"/><path class="cls-2" d="M539.41,377.59c3,1.76,6.09,3.52,8.94,5.53s5.63,4.14,8.28,6.41a59.36,59.36,0,0,1,9.46,9.83c-5.38-6.08-15.47-13.46-18.32-15.47s-5.59-4.17-8.44-6.19C539.26,377.65,539.34,377.55,539.41,377.59Z" transform="translate(-42.35 -50.69)"/><path class="cls-2" d="M531.94,387.75c3.76,2.41,7.57,4.66,11.22,7.24s8.6,6.33,12.05,9.13c.26.22.06.69-.21.48-3.56-2.66-8.8-6.27-12.39-8.89s-7.07-5.39-10.73-7.87C531.82,387.8,531.88,387.72,531.94,387.75Z" transform="translate(-42.35 -50.69)"/><path class="cls-2" d="M524,395.32c5.93,3.38,11.22,7.86,16.31,12.38.25.22,0,.28-.29.07-5.35-4.22-9.51-7.56-16.14-12.25C523.74,395.45,523.84,395.25,524,395.32Z" transform="translate(-42.35 -50.69)"/><path class="cls-2" d="M486.42,368c8.23-.84,32.4-3.2,40.67-3.35,7.29-.13,13.46.86,19.94,4.32,13.91,7.4,23.3,16.76,25.68,19.59,1.45,1.71,3.57,4.45,2.08,6.64-1.82,2.67-9.64,1-18.33-5.5-.32-.24-.15-.42.17-.21,12.1,8,16.48,6.57,17.5,4.9.66-1.09-.23-2.76-1-4a25.53,25.53,0,0,0-4.49-4.91,111.1,111.1,0,0,0-18.42-13.29,43.72,43.72,0,0,0-23.55-6.38c-8.47.11-31.74,2.55-40.21,2.53C486.24,368.35,486.24,368.06,486.42,368Z" transform="translate(-42.35 -50.69)"/><path class="cls-2" d="M568.09,402.79c-.68-2.21-2.5-4.1-4-5.84a41.9,41.9,0,0,0-5.95-6,.1.1,0,0,0-.14.14,65.88,65.88,0,0,1,5.3,5.78,33.83,33.83,0,0,1,2.44,3.51c.72,1.16,1.55,2.52,1.37,3.95-.33,2.73-3.73,3-5.81,2.45a23.12,23.12,0,0,1-3.92-1.46,37.81,37.81,0,0,1-4.92-3c-.13-.1-.45,0-.31.08,3.27,2.58,9.51,8,13.93,5.35A4.2,4.2,0,0,0,568.09,402.79Z" transform="translate(-42.35 -50.69)"/><path class="cls-11" d="M401.46,338.91l35.1,12.64s8.31-24.7,8.88-40.41-8.76-14.1-19.33-3S401.46,338.91,401.46,338.91Z" transform="translate(-42.35 -50.69)"/><path class="cls-2" d="M437,344.58c-5.31-2.28-19.91-8-29.92-10.48-.06,0-.14.21-.09.24,8,3.34,24.38,8.79,29.88,10.59C437,345,437.14,344.62,437,344.58Z" transform="translate(-42.35 -50.69)"/><path class="cls-2" d="M443.83,331.28s-.07-.08-.09,0c-.63,1.21-1.19,2.44-1.73,3.69.61-2.74,1.16-5.5,1.64-8.25a.08.08,0,1,0-.15,0c-2.35,8.09-4.91,16.14-7.09,24.29-.9-.05-1.8-.11-2.69-.23a.12.12,0,0,0,0,.24c1,.23,1.92.54,2.86.86.22.07.52.05.61-.2a119.09,119.09,0,0,0,4.28-14.16c.37-.73.73-1.46,1-2.22A28.91,28.91,0,0,0,443.83,331.28Z" transform="translate(-42.35 -50.69)"/><path class="cls-3" d="M450.21,294.21c-8,1.47-8,10.28-5.76,16.69s7.29,14.09,11.47,14.29,6-10.16,6-10.16,5.28,7.07,8.6,5.12-1.72-14.48-5.78-18.62C458.83,295.52,454.44,293.43,450.21,294.21Z" transform="translate(-42.35 -50.69)"/><path class="cls-13" d="M445.47,298.73c.17,1.9,7.23,15.09,15.69,15.9,2.76.26,4.84-14.72,4.84-14.72l.41-1.07,5.68-15-16.51-14.28-2.41-1.93s-1.28,4.21-2.83,9.46c-.08.24-.15.48-.22.74s-.19.58-.27.86c-.24.78-.48,1.58-.71,2.38-.17.6-.34,1.2-.5,1.84s-.34,1.27-.51,1.92A102,102,0,0,0,445.47,298.73Z" transform="translate(-42.35 -50.69)"/><path class="cls-2" d="M450.34,277.11a32.13,32.13,0,0,0,16.07,21.73l5.68-15-16.51-14.28-2.41-1.93S451.89,271.86,450.34,277.11Z" transform="translate(-42.35 -50.69)"/><path class="cls-13" d="M496.72,262.13c-1.45,28.1-18.44,30.4-24.5,30.08-5.49-.29-24.18-2-25.64-30.07s12.06-36.3,24.67-36.3S498.17,234,496.72,262.13Z" transform="translate(-42.35 -50.69)"/><path class="cls-2" d="M493,257.08c-.65-.13-1.23-.35-1.87-.54a3.16,3.16,0,0,1-1.79-.92,1,1,0,0,1,.09-1.22,2.48,2.48,0,0,1,2.48-.39,3.66,3.66,0,0,1,2.19,1.45A1.07,1.07,0,0,1,493,257.08Z" transform="translate(-42.35 -50.69)"/><path class="cls-2" d="M475,255.88c.66,0,1.27-.17,1.92-.26a3.19,3.19,0,0,0,1.92-.64,1,1,0,0,0,.08-1.22,2.47,2.47,0,0,0-2.39-.76,3.65,3.65,0,0,0-2.38,1.12A1.07,1.07,0,0,0,475,255.88Z" transform="translate(-42.35 -50.69)"/><path class="cls-2" d="M477.89,262.83c0-.08-.15.08-.15.16,0,1.92-.4,4.1-2.16,4.65-.06,0-.06.12,0,.11C477.71,267.56,478.17,264.65,477.89,262.83Z" transform="translate(-42.35 -50.69)"/><path class="cls-2" d="M476.29,260.74c-3.07-.38-3.62,5.77-.78,6.13S478.86,261.07,476.29,260.74Z" transform="translate(-42.35 -50.69)"/><path class="cls-2" d="M475.05,261c-.57.3-1.15.87-1.81.88s-1.26-.69-1.7-1.36c0-.07-.1,0-.11.06-.12,1.18.22,2.43,1.47,2.72s2.06-.7,2.46-1.86C475.44,261.18,475.28,260.84,475.05,261Z" transform="translate(-42.35 -50.69)"/><path class="cls-2" d="M488.35,263.36c0-.07.15.1.14.18-.25,1.9-.21,4.12,1.45,4.92.05,0,0,.12,0,.11C487.84,268.06,487.82,265.12,488.35,263.36Z" transform="translate(-42.35 -50.69)"/><path class="cls-2" d="M490.25,261.53c3.09.07,2.73,6.24-.13,6.18S487.66,261.48,490.25,261.53Z" transform="translate(-42.35 -50.69)"/><path class="cls-2" d="M491.51,262c.47.36.92,1,1.5,1.05s1.21-.55,1.68-1.17c.05-.06.1,0,.09.08,0,1.18-.49,2.38-1.64,2.54s-1.75-.91-2-2.1C491.14,262.19,491.33,261.87,491.51,262Z" transform="translate(-42.35 -50.69)"/><path class="cls-2" d="M476.47,277.53c.4.51.77,1.18,1.45,1.33a5,5,0,0,0,2.1-.2c.07,0,.12.06.07.11a2.57,2.57,0,0,1-2.55.7,2,2,0,0,1-1.26-1.88C476.26,277.48,476.42,277.46,476.47,277.53Z" transform="translate(-42.35 -50.69)"/><path class="cls-2" d="M484.61,272.17s.18,2.88.07,4.23c0,.12-5,.75-6.88-2.72a.15.15,0,0,1,.22-.18,9.66,9.66,0,0,0,5.71,2.13c.12-.36-.46-4.93-.25-4.93a12.07,12.07,0,0,1,3,.93c-.18-6-1.33-11.95-1.42-17.94a.18.18,0,0,1,.35-.06c1.65,6.14,2,13.05,2.36,19.26C487.83,273.67,485.13,272.44,484.61,272.17Z" transform="translate(-42.35 -50.69)"/><path class="cls-2" d="M448.6,263.28c6.87.67,11.64-20.1,12.19-22.66-.26,1.63-1.65,10.26-1,10.69a7,7,0,0,0,2.2-.12h0a20.14,20.14,0,0,1,.66-3.07c.12-.47,0,1.07.05,3,.41-.05.84-.13,1.31-.18a25.37,25.37,0,0,1,1.53-6.5c.3-.79,0,2.92.4,6.24,4.89-.65,11.92-1.42,18.33-.79,1.71.16,3.18.37,4.48.61.34-2.56.41-5.32.52-4.71a24.35,24.35,0,0,1,.44,4.89c.7.14,1.35.27,1.93.41.65-3.59-.31-9.58.16-8.62a25.78,25.78,0,0,1,2.31,9.35c2.4.8,3,1.37,3.17.74.27-1.13.19-11.42-6.7-19.87-7.49-9.18-24.28-13.46-35.54-2.33,0,0-8.6,4.13-10.95,12.29S444.62,262.9,448.6,263.28Z" transform="translate(-42.35 -50.69)"/><path class="cls-13" d="M451.13,262.44s-4.87-9.55-9.12-7.93-1.42,14.87,3,17.23a4.76,4.76,0,0,0,6.67-1.65Z" transform="translate(-42.35 -50.69)"/><path class="cls-2" d="M442.92,258.29c-.08,0-.11.08,0,.12,3.06,1.77,4.35,5,5.12,8.31-.8-1.34-2-2.18-3.8-1.26-.09.05,0,.2.07.19a2.92,2.92,0,0,1,3.05,1.46,14.3,14.3,0,0,1,1.17,2.79c.11.31.65.23.59-.12,0,0,0-.06,0-.08C449.72,265.57,447.31,259.32,442.92,258.29Z" transform="translate(-42.35 -50.69)"/><path class="cls-3" d="M481.56,183.38v-2.13l8.12-5.26v2.8l-5.57,3.48v.09l5.57,3.48v2.8Z" transform="translate(-42.35 -50.69)"/><path class="cls-3" d="M494,182.52c0-4.54,2.87-7.17,6.54-7.17a5.89,5.89,0,0,1,4.08,1.74L502.89,179a3.31,3.31,0,0,0-2.37-1c-1.95,0-3.36,1.65-3.36,4.39s1.41,4.44,3.48,4.44a3.32,3.32,0,0,0,2.46-1.2l1.71,1.87a5.66,5.66,0,0,1-4.49,2C496.92,189.54,494,187.14,494,182.52Z" transform="translate(-42.35 -50.69)"/><path class="cls-3" d="M507.35,182.38c0-4.57,2.24-7,5.5-7s5.51,2.46,5.51,7-2.25,7.16-5.51,7.16S507.35,187.06,507.35,182.38Zm7.83,0c0-2.84-.9-4.35-2.33-4.35s-2.32,1.51-2.32,4.35.9,4.48,2.32,4.48S515.18,185.33,515.18,182.38Z" transform="translate(-42.35 -50.69)"/><path class="cls-3" d="M521.75,175.6h3.78c4,0,6.58,2.08,6.58,6.78s-2.61,6.91-6.41,6.91h-4Zm3.6,11.19c2.13,0,3.58-1.13,3.58-4.41s-1.45-4.28-3.58-4.28h-.51v8.69Z" transform="translate(-42.35 -50.69)"/><path class="cls-3" d="M535.92,175.6H545v2.6h-6v2.74h5.07v2.6H539v3.15h6.18v2.6h-9.28Z" transform="translate(-42.35 -50.69)"/><path class="cls-3" d="M549.74,185.84l5.57-3.48v-.09l-5.57-3.48V176l8.12,5.26v2.13l-8.12,5.26Z" transform="translate(-42.35 -50.69)"/></g><g id="Character_1" data-name="Character 1"><path class="cls-14" d="M288.87,306.82c-7.12,31-21.55,70.33-32.69,78.26-9,6.39-56.16,17.66-58.79,17.94-6.51.66-19.37-45.34-12.62-47.21,8.51-2.35,48.93-3.61,51.23-6s17.09-22.39,33.74-45.46C281.24,288.43,293.3,287.56,288.87,306.82Z" transform="translate(-42.35 -50.69)"/><path class="cls-14" d="M202.62,400.49c-.78.4-11.79,5.93-18.6,7.91-5.08,1.47-19.82,5.32-22-.11-1.49-3.71,6.91-7,12.8-9.44,3.1-1.3,6.92-4.54,6-6.54-1.6-3.48-9.59,0-14.84,3.07-10.15,5.9-23.68,16.52-29.89,11.37-2.34-1.95.38-5.5,4.37-9-6.47,4.05-13.36,7.37-16,5.31-1.54-1.17-1.61-2.78-.75-4.62-2,.65-3.76.52-5-.78-2.1-2.2-1.08-5.44,1.22-8.77a2.51,2.51,0,0,1-1.91-1.25c-4.45-6.79,17.82-26.26,25.52-28.08,22.66-5.39,46.76-3.43,46.76-3.43C199.18,363.27,202.64,400.48,202.62,400.49Z" transform="translate(-42.35 -50.69)"/><path class="cls-2" d="M169.3,379.64a38.45,38.45,0,0,0-15.11,5.81c-5.74,3.79-9.56,8.23-14.37,12.7-.13.12.05.32.17.2,2.3-2.12,11.82-10.11,14.27-11.93a36.64,36.64,0,0,1,15.06-6.69C169.38,379.72,169.36,379.63,169.3,379.64Z" transform="translate(-42.35 -50.69)"/><path class="cls-2" d="M165.08,370c-6,1.63-12.06,3.28-17.58,6.09-6.05,3.08-10.79,8.11-15.44,12.95-2.79,2.9-5.53,5.86-8.19,8.89-.11.13.06.33.18.2q7.08-7.48,14.61-14.55a48.51,48.51,0,0,1,16-10.11c3.41-1.3,6.91-2.33,10.4-3.36C165.17,370.11,165.15,370,165.08,370Z" transform="translate(-42.35 -50.69)"/><path class="cls-2" d="M158.72,361.61c-5.79,1.19-10.84,2.21-16,5.31-6.78,4.1-13.33,11-15.63,13.47-2.53,2.71-5,5.5-7.38,8.33-.1.11.1.28.2.17a192.84,192.84,0,0,1,17.65-17.48,38.44,38.44,0,0,1,9.87-6.42,68.71,68.71,0,0,1,11.26-3.34S158.74,361.61,158.72,361.61Z" transform="translate(-42.35 -50.69)"/><path class="cls-8" d="M236.34,345.32l43.47-1.85s7.9-21.54,10.8-40.66-13.39-12.26-29.52,8.34S236.34,345.32,236.34,345.32Z" transform="translate(-42.35 -50.69)"/><path class="cls-2" d="M281.3,334c-9.4-.24-18.84.17-28.24.78-2.65.17-5.31.4-8,.69-.07,0-.08.12,0,.12,4.69,0,9.39-.15,14.09-.29s9.43-.33,14.13-.61c2.66-.15,5.32-.3,8-.52C281.4,334.21,281.41,334,281.3,334Z" transform="translate(-42.35 -50.69)"/><path class="cls-8" d="M247.34,418.76h111c1.22-2.25-17-99.44-54.38-126.8-8.3-6.07-23-2.17-27.13,3.73C256.19,325.37,247.34,418.76,247.34,418.76Z" transform="translate(-42.35 -50.69)"/><path class="cls-2" d="M265,321.55q-1.53,5.54-2.95,11.08c.12-1.61.3-3.23.5-4.83,0-.1-.13-.14-.15,0a34.26,34.26,0,0,0-.66,6.06c-1.14,4.46-2.22,8.94-3.21,13.44-1.9,8.63-3.59,17.33-5,26.05-.79,4.92-1.4,9.87-2.25,14.78,0,.09.13.13.15,0,.77-4.35,1.8-8.68,2.75-13s1.85-8.6,2.74-12.9c1.8-8.66,3.69-17.29,5.48-26,1-4.87,1.94-9.76,2.94-14.64A.18.18,0,0,0,265,321.55Z" transform="translate(-42.35 -50.69)"/><path class="cls-14" d="M318.11,301.56C336,320.75,378.64,392.75,364.82,406s-90.49-4.6-112-14.86c-6.41-3.05,17.94-43,25.47-43.93,6.27-.77,38.32,13.89,39.25,12,1-2.08-6.24-15.46-13.95-43.3C294.67,283.87,310.19,293.08,318.11,301.56Z" transform="translate(-42.35 -50.69)"/><path class="cls-14" d="M246.43,334.35c-15.58-2.17-19.91-.34-32.08-9.15-8-5.78-15.1-3.16-10.54,6,7.45,15,26.95,22,34.41,22.52Z" transform="translate(-42.35 -50.69)"/><path class="cls-14" d="M287.79,349.34s-17.5-9.72-33.86-13.67c-11.32-2.73-36.61-5.93-60.8,19-5.74,5.92-9.72,18.42,3.17,12.16,9.15-4.45,13.6-10,19.4-11.65,0,0-3.18,16.5,3,22a151.65,151.65,0,0,0,17.1,13.27,31.78,31.78,0,0,0,2.77-3s6.23,4.61,18,3.5Z" transform="translate(-42.35 -50.69)"/><path class="cls-14" d="M242.71,334.79c-5.41,2.82-16.78,9-24.32,17.27-8.38,9.2-22,29.19-15.19,35.3,5,4.48,10.92-2.69,10.92-2.69s-3.91,9.45,1.52,12.51c4.94,2.79,9.16-3,9.16-3s-1.38,6.13,3.9,7.9c6.35,2.12,8.21-11.09,16.5-14.5C247.06,386.79,242.71,334.79,242.71,334.79Z" transform="translate(-42.35 -50.69)"/><path class="cls-2" d="M229.58,359.29c-4.65,3.49-13.19,14.13-15.55,25.14-.05.25.11.42.21.21a122.11,122.11,0,0,1,15.43-25.27C229.71,359.32,229.64,359.26,229.58,359.29Z" transform="translate(-42.35 -50.69)"/><path class="cls-2" d="M238.63,368c-3.71,3.42-12,14.78-14,26,0,.25.13.41.22.19a130.7,130.7,0,0,1,13.9-26.13C238.76,368,238.67,368,238.63,368Z" transform="translate(-42.35 -50.69)"/><path class="cls-2" d="M215.7,355.09c-5.08,1.49-8.38,4-12.66,7a70.62,70.62,0,0,1-6.54,4.14c-2.07,1.11-5.12,2.8-7.32,1.05-1.22-1-1.21-2.74-.93-4.14a11.06,11.06,0,0,1,1.84-4.39c0-.06-.07-.15-.12-.08a15,15,0,0,0-2.1,3.75,6.83,6.83,0,0,0-.46,4c.75,2.8,4.05,3.17,6.39,2.4a22.27,22.27,0,0,0,4-1.94c1.23-.7,2.43-1.47,3.6-2.26,2.41-1.63,4.73-3.4,7.12-5.05a64.17,64.17,0,0,1,7.26-4.23A.09.09,0,0,0,215.7,355.09Z" transform="translate(-42.35 -50.69)"/><path class="cls-2" d="M205.07,372.94c1.31-2.89,8.42-14.94,10.73-17.73.06-.07,0-.16-.11-.1-3.95,3.75-10.31,13.71-11.79,16.9s-3.15,7.18-3.15,10.7c0,5.3,3.52,6.3,4.82,6.56a6.81,6.81,0,0,0,4.51-.74,13.86,13.86,0,0,0,4.09-3.84c.05-.07,0-.17-.11-.1-1.83,2.09-4.89,4.15-7.77,3.77a4.81,4.81,0,0,1-3.28-1.77,6.28,6.28,0,0,1-.84-4.27A28.81,28.81,0,0,1,205.07,372.94Z" transform="translate(-42.35 -50.69)"/><path class="cls-2" d="M224.6,394c-.74.63-2.26,2.83-4.67,3.3a5.48,5.48,0,0,1-5-1.11,6.91,6.91,0,0,1-1.9-4.82,43.21,43.21,0,0,1,1.11-6.68c0-.1-.11-.15-.14-.05a24.78,24.78,0,0,0-1.59,7.18,7.24,7.24,0,0,0,2,5.29A5.44,5.44,0,0,0,220,398.3c.94-.36,3.93-2.27,4.79-4.15C224.82,394.1,224.63,394,224.6,394Z" transform="translate(-42.35 -50.69)"/><path class="cls-2" d="M244.7,386.6a13.1,13.1,0,0,0-2.25,1.9c-.74.71-1.46,1.46-2.16,2.22a30.2,30.2,0,0,0-3.67,5c-1.07,1.8-2.06,3.8-3.8,5.06a5,5,0,0,1-5.81.14,4.85,4.85,0,0,1-1.81-2.69,9.63,9.63,0,0,1-.34-3.62.07.07,0,1,0-.14,0,16.38,16.38,0,0,0-.26,3.28,5.76,5.76,0,0,0,1,2.8,5.53,5.53,0,0,0,5.41,2,8.13,8.13,0,0,0,5-3.87c1.34-2,2.45-4.15,3.88-6.1.75-1,1.49-2.06,2.31-3s1.89-1.91,2.68-3A.1.1,0,0,0,244.7,386.6Z" transform="translate(-42.35 -50.69)"/><path class="cls-2" d="M250.9,391.12a45,45,0,0,1-8.53-1.77c-.09,0-.22.22-.14.27a20.71,20.71,0,0,0,4.21,1.39,15.06,15.06,0,0,0,4.44.27C251,391.27,251,391.13,250.9,391.12Z" transform="translate(-42.35 -50.69)"/><path class="cls-2" d="M346.5,373.29a112.19,112.19,0,0,0-14.09-8.06,108.56,108.56,0,0,0-15-5.79c-2.92-.93-5.87-1.71-8.82-2.51-.09,0-.12.11,0,.14a140.87,140.87,0,0,1,15.11,5.67q7.37,3.18,14.6,6.62c2.73,1.3,5.4,2.73,8.09,4.12A.11.11,0,0,0,346.5,373.29Z" transform="translate(-42.35 -50.69)"/><path class="cls-8" d="M354.8,346.81l-43.49-1.44s-8.09-21.46-11.17-40.56S312.7,291.55,329,312,354.8,346.81,354.8,346.81Z" transform="translate(-42.35 -50.69)"/><path class="cls-2" d="M313.1,345.23c-.23,0-1.76-.27-1.77-.27-.11-.57-2.59-9.54-3.24-11.5-1.33-4-2.89-7.88-4.4-11.8-.05-.12-.24-.07-.2.06,1,3.37,1.9,6.76,2.91,10.12-.3-.48-.6-1-.89-1.44-.59-1-1.1-2-1.65-3a.09.09,0,0,0-.17.07,17.13,17.13,0,0,0,1.92,4,15.62,15.62,0,0,0,1.13,1.54c.09.28.17.56.26.83.61,2,3.8,11.68,4,11.69l2.1,0C313.18,345.52,313.22,345.23,313.1,345.23Z" transform="translate(-42.35 -50.69)"/><path class="cls-2" d="M347.76,338.39c-9.38-.7-18.82-.74-28.24-.6-2.66,0-5.33.14-8,.31-.08,0-.09.11,0,.11,4.69.26,9.39.31,14.09.4s9.43.14,14.14.09c2.66,0,5.32-.05,8-.13A.09.09,0,0,0,347.76,338.39Z" transform="translate(-42.35 -50.69)"/><path class="cls-9" d="M277.55,292.78c-2.89,2.42-5.79,11.45-4.19,17.42s4.75,9.81,10.18,9.33,15.86-4.63,22.66-16.81S291.77,280.89,277.55,292.78Z" transform="translate(-42.35 -50.69)"/><path class="cls-14" d="M281.47,312.84c6.42,1.89,18.11-7.45,23-15.26.33-.54-.78-22.75-.54-27.17.05-.91-28.11,5.25-28.11,5.25s2.23,9.41,1.77,17.12C277.5,293.43,275.26,311,281.47,312.84Z" transform="translate(-42.35 -50.69)"/><path class="cls-2" d="M304.4,291.93c-14.8,2.19-22.83-2.24-27-6.49a82.76,82.76,0,0,0-1.56-9.79s28.15-6.15,28.1-5.24C303.73,273.45,304.2,284.9,304.4,291.93Z" transform="translate(-42.35 -50.69)"/><path class="cls-14" d="M268.9,234.77c-4.11,9.44-2.18,38.31,4.06,45.41,9.05,10.29,25.47,13.06,34.62,1.82,8.88-10.9,5.7-48.47-1.42-55.09C295.67,217.16,275,220.81,268.9,234.77Z" transform="translate(-42.35 -50.69)"/><path class="cls-2" d="M295,255.1c0-.07-.15.1-.14.18.18,1.94.06,4.2-1.66,5-.05,0,0,.12,0,.11C295.38,259.9,295.5,256.91,295,255.1Z" transform="translate(-42.35 -50.69)"/><path class="cls-2" d="M293.16,253.18c-3.15-.05-3,6.24-.09,6.28S295.79,253.21,293.16,253.18Z" transform="translate(-42.35 -50.69)"/><path class="cls-2" d="M305.78,255.15c0-.08.16.09.16.17,0,1.95.29,4.18,2.07,4.79.05,0,.05.12,0,.11C305.83,260,305.46,257,305.78,255.15Z" transform="translate(-42.35 -50.69)"/><path class="cls-2" d="M307.48,253.08c3.13-.31,3.51,6,.62,6.25S304.86,253.33,307.48,253.08Z" transform="translate(-42.35 -50.69)"/><path class="cls-2" d="M290.61,250.36a24.88,24.88,0,0,0,2.41-.91,4.22,4.22,0,0,0,2.29-1.41,1.32,1.32,0,0,0-.25-1.6,3.3,3.3,0,0,0-3.33-.26,4.83,4.83,0,0,0-2.74,2.15A1.42,1.42,0,0,0,290.61,250.36Z" transform="translate(-42.35 -50.69)"/><path class="cls-2" d="M309.84,249.85a24.24,24.24,0,0,1-2.52-.59,4.24,4.24,0,0,1-2.45-1.09,1.34,1.34,0,0,1,0-1.62,3.28,3.28,0,0,1,3.27-.7,4.85,4.85,0,0,1,3,1.78A1.42,1.42,0,0,1,309.84,249.85Z" transform="translate(-42.35 -50.69)"/><path class="cls-2" d="M293.11,273.21c.48.45,1,1.06,1.67,1.11a5.3,5.3,0,0,0,2.08-.54.07.07,0,0,1,.08.1A2.6,2.6,0,0,1,294.5,275a2.06,2.06,0,0,1-1.57-1.69C292.89,273.19,293,273.15,293.11,273.21Z" transform="translate(-42.35 -50.69)"/><path class="cls-2" d="M295,267.33a6.65,6.65,0,0,0,4.5,2.85,8.31,8.31,0,0,0,2.39.06,2.22,2.22,0,0,0,.45-.07l.43-.07a.48.48,0,0,0,.38-.45h0a1.36,1.36,0,0,0,0-.2h0v-.18c0-1.5-.19-3.77-.19-3.77.55.26,3.37,1.45,3.31.67-.53-6.48-1.13-13.68-3-20a.18.18,0,0,0-.35.06c.26,6.25,1.63,12.4,2,18.67a11.69,11.69,0,0,0-3.15-.87c-.22.06.46,4.39.4,5.06a.45.45,0,0,1,0,.08c-2.51.38-4.43-.34-6.92-2C295.06,267,294.9,267.18,295,267.33Z" transform="translate(-42.35 -50.69)"/><path class="cls-2" d="M301,269.5a7.89,7.89,0,0,1-3.1,2.51,3.47,3.47,0,0,1-2.15.18c-1.56-.37-1.63-1.8-1.38-3a8.3,8.3,0,0,1,.66-1.88A10.25,10.25,0,0,0,301,269.5Z" transform="translate(-42.35 -50.69)"/><path class="cls-15" d="M297.91,272a3.47,3.47,0,0,1-2.15.18c-1.56-.37-1.63-1.8-1.38-3C296.06,269.3,297.73,270.39,297.91,272Z" transform="translate(-42.35 -50.69)"/><path class="cls-2" d="M268,257.16c7.35.31,9.41-13,9.41-13s12.72-1.48,15-10.89c0,0,11.61,8.21,21.19,5.24s8.11-13.72,7.17-16.05-6.36,1.66-6.36,1.66-.31-6.06-1.89-6.75-3.51,2.88-3.51,2.88-11.94-4.64-23-4.84-17,10.63-17,10.63-6,1-8.05,5S263.31,257,268,257.16Z" transform="translate(-42.35 -50.69)"/><path class="cls-2" d="M292.33,231.48a15.66,15.66,0,0,1-1.41,5.58,10.53,10.53,0,0,1-3.68,4.17,15.31,15.31,0,0,1-5.33,1.86c-.94.14-1.91.19-2.88.27s-1.95,0-2.94,0c1,.18,2,.3,2.93.45s2,0,3,0a13.34,13.34,0,0,0,5.75-1.79,10,10,0,0,0,3.83-4.67A12.24,12.24,0,0,0,292.33,231.48Z" transform="translate(-42.35 -50.69)"/><path class="cls-2" d="M268.9,227.58a18.05,18.05,0,0,1,4.72-8.07,14.38,14.38,0,0,1,8.23-3.94,16.44,16.44,0,0,1,2.32-.24l2.35.07c1.56.12,3.11.47,4.66.73,1.51.45,3.07.8,4.56,1.32s3,1.13,4.5,1.66c-1.43-.72-2.88-1.39-4.33-2.09s-3-1.06-4.55-1.6a24.33,24.33,0,0,0-9.65-.79A14.69,14.69,0,0,0,273.1,219,16.28,16.28,0,0,0,268.9,227.58Z" transform="translate(-42.35 -50.69)"/><path class="cls-16" d="M262.45,258.33l-1-.5c.24-.46,2.45-4.56,5-5,2.42-.41,18,.73,18.67.78l-.1,1.11c-4.47-.33-16.5-1.12-18.37-.79C265,254.21,263,257.2,262.45,258.33Z" transform="translate(-42.35 -50.69)"/><path class="cls-14" d="M272.3,258.5s-5.54-9.77-9.91-7.87-.81,15.62,3.9,17.9a5,5,0,0,0,6.9-2Z" transform="translate(-42.35 -50.69)"/><path class="cls-2" d="M263.51,254.54c-.08,0-.1.09,0,.13,3.29,1.71,4.79,5.05,5.75,8.46-.9-1.36-2.22-2.19-4-1.14a.1.1,0,0,0,.07.19,3.07,3.07,0,0,1,3.26,1.39,14,14,0,0,1,1.35,2.87c.14.32.7.21.62-.16,0,0,0,0,0-.08C271,261.85,268.15,255.42,263.51,254.54Z" transform="translate(-42.35 -50.69)"/><rect class="cls-16" x="241.81" y="198.59" width="1.46" height="13.86"/><rect class="cls-16" x="290.73" y="255.22" width="1.34" height="14.48" transform="translate(511.51 -79.63) rotate(90)"/><rect class="cls-16" x="254.83" y="198.7" width="1.46" height="13.35"/><rect class="cls-16" x="290.73" y="242.63" width="1.34" height="14.48" transform="translate(498.91 -92.22) rotate(90)"/><rect class="cls-16" x="261.18" y="198.74" width="1.37" height="13.86"/><rect class="cls-16" x="309.65" y="255.83" width="1.34" height="13.57" transform="translate(530.58 -98.39) rotate(90)"/><rect class="cls-16" x="273.38" y="198.86" width="1.37" height="13.35"/><rect class="cls-16" x="309.65" y="243.24" width="1.34" height="13.57" transform="translate(517.99 -110.98) rotate(90)"/><rect class="cls-16" x="254.83" y="203.53" width="9.08" height="0.91"/></g><g id="Desk"><polygon class="cls-2" points="13.47 368.07 93.26 367.82 173.06 367.74 332.64 367.57 492.23 367.74 572.03 367.82 651.82 368.07 572.03 368.31 492.23 368.4 332.64 368.57 173.06 368.4 93.26 368.31 13.47 368.07"/></g><g id="Device_2" data-name="Device 2"><rect class="cls-17" x="467.04" y="365.56" width="111.19" height="4.99"/><rect class="cls-2" x="467.04" y="365.56" width="55.97" height="4.99"/><polygon class="cls-18" points="521.71 370.54 630.07 370.54 645.38 296.94 537.02 296.94 521.71 370.54"/><path class="cls-3" d="M617.5,386.07a6.38,6.38,0,0,0,6.46,7.22,8.22,8.22,0,0,0,8-7.22,6.39,6.39,0,0,0-6.47-7.22A8.21,8.21,0,0,0,617.5,386.07Z" transform="translate(-42.35 -50.69)"/></g><g id="Device_1" data-name="Device 1"><rect class="cls-19" x="222.9" y="413.93" width="6.14" height="4.01" transform="translate(409.58 781.19) rotate(180)"/><rect class="cls-19" x="214.93" y="413.67" width="6.14" height="4.01" transform="translate(393.65 780.66) rotate(180)"/><rect class="cls-19" x="206.97" y="413.4" width="6.14" height="4.01" transform="translate(377.73 780.13) rotate(180)"/><rect class="cls-19" x="199" y="413.14" width="6.14" height="4.01" transform="translate(361.8 779.6) rotate(180)"/><rect class="cls-19" x="191.04" y="412.87" width="6.14" height="4.01" transform="translate(345.86 779.07) rotate(180)"/><rect class="cls-19" x="183.07" y="412.61" width="6.14" height="4.01" transform="translate(329.94 778.54) rotate(180)"/><rect class="cls-19" x="175.11" y="412.34" width="6.14" height="4.01" transform="translate(314.01 778.01) rotate(180)"/><rect class="cls-19" x="167.14" y="412.08" width="6.14" height="4.01" transform="translate(298.08 777.48) rotate(180)"/><rect class="cls-19" x="159.18" y="411.81" width="6.14" height="4.01" transform="translate(282.15 776.95) rotate(180)"/><polygon points="115.32 369.56 188.19 369.56 188.19 364.68 115.32 362.65 115.32 369.56"/><polygon class="cls-17" points="44.2 350.32 164.5 350.32 145.36 260.76 25.07 260.76 44.2 350.32"/><polygon class="cls-18" points="39.75 350.32 160.04 350.32 140.91 260.76 20.62 260.76 39.75 350.32"/><path class="cls-3" d="M122.29,351a9.05,9.05,0,0,0,8.62,7.44,6.2,6.2,0,0,0,6.26-7.44,9.06,9.06,0,0,0-8.62-7.44A6.19,6.19,0,0,0,122.29,351Z" transform="translate(-42.35 -50.69)"/><polygon class="cls-17" points="73.77 373.71 132.94 373.71 132.94 369.11 73.77 367.2 73.77 373.71"/><polygon class="cls-17" points="57.69 373.7 89.45 373.7 108.58 323.52 76.82 323.52 57.69 373.7"/><polygon class="cls-2" points="52.46 373.7 84.22 373.7 103.35 323.52 71.59 323.52 52.46 373.7"/><path d="M232.79,425.62h61c5.21,0-2.32-14.83-21.32-20.51S226.8,420.06,232.79,425.62Z" transform="translate(-42.35 -50.69)"/><path class="cls-20" d="M256.73,425.62a38,38,0,0,0-1.53-4.74,29.36,29.36,0,0,0-2.17-4.39,21.44,21.44,0,0,0-2.94-3.9l-.85-.87-.94-.81c-.59-.59-1.33-1-2-1.51a14.24,14.24,0,0,1,4.32,2.63,16.87,16.87,0,0,1,3.25,3.94A19.65,19.65,0,0,1,256.73,425.62Z" transform="translate(-42.35 -50.69)"/><path class="cls-20" d="M249.5,411.51c-1.66.91-3.29,1.85-4.91,2.8s-3.2,1.94-4.71,3a31,31,0,0,0-4.25,3.57,10.85,10.85,0,0,0-2.84,4.71,8.91,8.91,0,0,1,2.26-5.22,22,22,0,0,1,4.25-3.87A36.84,36.84,0,0,1,249.5,411.51Z" transform="translate(-42.35 -50.69)"/></g><g id="Drink"><polygon class="cls-21" points="303.68 338.32 299.28 393.54 268.9 393.54 264.51 338.32 303.68 338.32"/><rect class="cls-17" x="261.63" y="333.33" width="44.66" height="8.05"/><polygon class="cls-18" points="303.23 333.33 264.7 333.33 266.95 324.29 300.98 324.29 303.23 333.33"/><path class="cls-3" d="M337,417.1c0,7.17-4.72,13-10.54,13s-10.55-5.82-10.55-13,4.72-13,10.55-13S337,409.93,337,417.1Z" transform="translate(-42.35 -50.69)"/></g><g id="Speech_Bubble" data-name="Speech Bubble"><path class="cls-3" d="M331.82,249.18a17.48,17.48,0,0,1-3-9.67c0-12.25,13.45-22.19,30-22.19s30,9.94,30,22.19-13.44,22.19-30,22.19a36,36,0,0,1-20.72-6.14l-10.35,2.63Z" transform="translate(-42.35 -50.69)"/><path class="cls-2" d="M331.82,249.18a17.17,17.17,0,0,1-.73-18.56,23.84,23.84,0,0,1,6.62-7.2,31.47,31.47,0,0,1,8.73-4.46,40,40,0,0,1,9.62-1.94,41.35,41.35,0,0,1,9.81.49,34.94,34.94,0,0,1,9.39,2.92,29,29,0,0,1,8.1,5.6,20.68,20.68,0,0,1,5.24,8.38,17,17,0,0,1,.09,9.88,20.44,20.44,0,0,1-5.1,8.45,28.89,28.89,0,0,1-8,5.7A38.71,38.71,0,0,1,356.39,262,35.71,35.71,0,0,1,338,255.75l.18,0-10.37,2.52-.23.05.1-.2Zm0,0-3.92,9.06-.13-.15,10.32-2.75.1,0,.09.06a35.3,35.3,0,0,0,18.15,5.89,40.19,40.19,0,0,0,9.61-.65,34.85,34.85,0,0,0,9.13-3,28.15,28.15,0,0,0,7.76-5.55,19.57,19.57,0,0,0,4.83-8.08,16,16,0,0,0-.12-9.32,19.58,19.58,0,0,0-5-8,27.9,27.9,0,0,0-7.82-5.45,34,34,0,0,0-9.14-2.89,41.8,41.8,0,0,0-9.61-.53,40,40,0,0,0-9.45,1.78,30.79,30.79,0,0,0-8.61,4.27,23.69,23.69,0,0,0-6.58,7,17.29,17.29,0,0,0-2.53,9.19A17.59,17.59,0,0,0,331.82,249.18Z" transform="translate(-42.35 -50.69)"/><path class="cls-2" d="M369.67,239.51a3.12,3.12,0,1,0,3.11-3.11A3.12,3.12,0,0,0,369.67,239.51Z" transform="translate(-42.35 -50.69)"/><path class="cls-2" d="M355.75,239.51a3.12,3.12,0,1,0,3.11-3.11A3.12,3.12,0,0,0,355.75,239.51Z" transform="translate(-42.35 -50.69)"/><path class="cls-2" d="M341.83,239.51a3.12,3.12,0,1,0,3.11-3.11A3.12,3.12,0,0,0,341.83,239.51Z" transform="translate(-42.35 -50.69)"/></g></svg>